<svg width="11" height="10" viewBox="0 0 11 10" fill="none" xmlns="http://www.w3.org/2000/svg">
<path d="M9.77604 1.66675H1.22049C1.05841 1.66675 0.902971 1.72528 0.788365 1.82947C0.67376 1.93365 0.609375 2.07496 0.609375 2.2223V7.77786C0.609375 7.9252 0.67376 8.06651 0.788365 8.1707C0.902971 8.27488 1.05841 8.33341 1.22049 8.33341H9.77604C9.93812 8.33341 10.0936 8.27488 10.2082 8.1707C10.3228 8.06651 10.3872 7.9252 10.3872 7.77786V2.2223C10.3872 2.07496 10.3228 1.93365 10.2082 1.82947C10.0936 1.72528 9.93812 1.66675 9.77604 1.66675ZM9.30548 7.77786H1.72771L3.8666 5.76675L3.4266 5.38064L1.22049 7.45564V2.64453L5.01854 6.08064C5.13304 6.18411 5.28793 6.24219 5.44937 6.24219C5.61082 6.24219 5.76571 6.18411 5.88021 6.08064L9.77604 2.55841V7.41952L7.52715 5.37508L7.09632 5.76675L9.30548 7.77786ZM1.62076 2.2223H9.28104L5.44937 5.68619L1.62076 2.2223Z" fill="#09726E"/>
</svg>
