<svg width="16" height="11" viewBox="0 0 16 11" fill="none" xmlns="http://www.w3.org/2000/svg">
<path d="M14.7411 5.04564C15.0863 5.46636 15.0863 6.03432 14.7411 6.45436C13.6539 7.77689 11.0455 10.5 8.00011 10.5C4.95475 10.5 2.34631 7.77689 1.2591 6.45436C1.09116 6.25291 1 6.00509 1 5.75C1 5.49491 1.09116 5.24709 1.2591 5.04564C2.34631 3.72311 4.95475 1 8.00011 1C11.0455 1 13.6539 3.72311 14.7411 5.04564V5.04564Z" stroke="#09726E" stroke-linecap="round" stroke-linejoin="round"/>
<path d="M7.99712 7.78578C9.20365 7.78578 10.1817 6.87436 10.1817 5.75007C10.1817 4.62578 9.20365 3.71436 7.99712 3.71436C6.79059 3.71436 5.8125 4.62578 5.8125 5.75007C5.8125 6.87436 6.79059 7.78578 7.99712 7.78578Z" stroke="#09726E" stroke-linecap="round" stroke-linejoin="round"/>
</svg>
