<svg width="30" height="30" viewBox="0 0 30 30" fill="none" xmlns="http://www.w3.org/2000/svg">
<path d="M30 15C30 6.71488 23.2851 0 15 0C6.71488 0 0 6.71488 0 15C0 22.4883 5.48438 28.6934 12.6562 29.8184V19.3359H8.84763V15H12.6562V11.6953C12.6562 7.9365 14.8946 5.85938 18.3223 5.85938C19.9629 5.85938 21.6797 6.15234 21.6797 6.15234V9.84375H19.7871C17.9238 9.84375 17.3438 11.001 17.3438 12.1875V15H21.5039L20.8389 19.3359H17.3438V29.8184C24.5156 28.6934 30 22.4883 30 15Z" fill="#1877F2"/>
<path d="M20.835 19.3359L21.5 15H17.3399V12.1875C17.3399 11.001 17.9199 9.84375 19.7833 9.84375H21.6758V6.15234C21.6758 6.15234 19.959 5.85938 18.3184 5.85938C14.8907 5.85938 12.6524 7.9365 12.6524 11.6953V15H8.84375V19.3359H12.6524V29.8184C13.417 29.9385 14.1992 30 14.9961 30C15.793 30 16.5752 29.9385 17.3399 29.8184V19.3359H20.835Z" fill="white"/>
</svg>
