<svg width="24" height="24" viewBox="0 0 24 24" fill="none" xmlns="http://www.w3.org/2000/svg">
<path d="M19.8055 10.0415H19V10H10V14H15.6515C14.827 16.3285 12.6115 18 10 18C6.6865 18 4 15.3135 4 12C4 8.6865 6.6865 6 10 6C11.5295 6 12.921 6.577 13.9805 7.5195L16.809 4.691C15.023 3.0265 12.634 2 10 2C4.4775 2 0 6.4775 0 12C0 17.5225 4.4775 22 10 22C15.5225 22 20 17.5225 20 12C20 11.3295 19.931 10.675 19.8055 10.0415Z" fill="#FFC107"/>
<path d="M1.15625 7.3455L4.44175 9.755C5.33075 7.554 7.48375 6 10.0032 6C11.5327 6 12.9242 6.577 13.9837 7.5195L16.8122 4.691C15.0262 3.0265 12.6372 2 10.0032 2C6.16225 2 2.83125 4.1685 1.15625 7.3455Z" fill="#FF3D00"/>
<path d="M9.99625 22.0001C12.5793 22.0001 14.9263 21.0116 16.7008 19.4041L13.6058 16.7851C12.568 17.5743 11.3 18.0011 9.99625 18.0001C7.39525 18.0001 5.18675 16.3416 4.35475 14.0271L1.09375 16.5396C2.74875 19.7781 6.10975 22.0001 9.99625 22.0001Z" fill="#4CAF50"/>
<path d="M19.8055 10.0415H19V10H10V14H15.6515C15.2571 15.1082 14.5467 16.0766 13.608 16.7855L13.6095 16.7845L16.7045 19.4035C16.4855 19.6025 20 17 20 12C20 11.3295 19.931 10.675 19.8055 10.0415Z" fill="#1976D2"/>
</svg>
