<svg width="30" height="30" viewBox="0 0 30 30" fill="none" xmlns="http://www.w3.org/2000/svg">
<circle cx="15" cy="15" r="15" fill="white"/>
<path d="M19.0419 5H10.9581C7.67279 5 5 7.67279 5 10.9581V19.0419C5 22.3272 7.67279 25 10.9581 25H19.0419C22.3272 25 25 22.3272 25 19.0419V10.9581C25 7.67279 22.3272 5 19.0419 5ZM22.988 19.0419C22.988 21.2213 21.2213 22.988 19.0419 22.988H10.9581C8.77875 22.988 7.012 21.2213 7.012 19.0419V10.9581C7.012 8.77871 8.77875 7.012 10.9581 7.012H19.0419C21.2213 7.012 22.988 8.77871 22.988 10.9581V19.0419Z" fill="url(#paint0_linear_1550_5813)"/>
<path d="M15.0008 9.82715C12.1486 9.82715 9.82812 12.1476 9.82812 14.9998C9.82812 17.852 12.1486 20.1725 15.0008 20.1725C17.8531 20.1725 20.1735 17.8521 20.1735 14.9998C20.1735 12.1476 17.8531 9.82715 15.0008 9.82715ZM15.0008 18.1606C13.2552 18.1606 11.8401 16.7455 11.8401 14.9999C11.8401 13.2542 13.2552 11.8391 15.0008 11.8391C16.7465 11.8391 18.1615 13.2542 18.1615 14.9999C18.1615 16.7455 16.7464 18.1606 15.0008 18.1606Z" fill="url(#paint1_linear_1550_5813)"/>
<path d="M20.1848 11.1054C20.8694 11.1054 21.4243 10.5505 21.4243 9.86595C21.4243 9.1814 20.8694 8.62646 20.1848 8.62646C19.5002 8.62646 18.9453 9.1814 18.9453 9.86595C18.9453 10.5505 19.5002 11.1054 20.1848 11.1054Z" fill="url(#paint2_linear_1550_5813)"/>
<defs>
<linearGradient id="paint0_linear_1550_5813" x1="15" y1="24.9418" x2="15" y2="5.15534" gradientUnits="userSpaceOnUse">
<stop stop-color="#E09B3D"/>
<stop offset="0.3" stop-color="#C74C4D"/>
<stop offset="0.6" stop-color="#C21975"/>
<stop offset="1" stop-color="#7024C4"/>
</linearGradient>
<linearGradient id="paint1_linear_1550_5813" x1="15.0008" y1="24.9416" x2="15.0008" y2="5.1552" gradientUnits="userSpaceOnUse">
<stop stop-color="#E09B3D"/>
<stop offset="0.3" stop-color="#C74C4D"/>
<stop offset="0.6" stop-color="#C21975"/>
<stop offset="1" stop-color="#7024C4"/>
</linearGradient>
<linearGradient id="paint2_linear_1550_5813" x1="20.1848" y1="24.9416" x2="20.1848" y2="5.15517" gradientUnits="userSpaceOnUse">
<stop stop-color="#E09B3D"/>
<stop offset="0.3" stop-color="#C74C4D"/>
<stop offset="0.6" stop-color="#C21975"/>
<stop offset="1" stop-color="#7024C4"/>
</linearGradient>
</defs>
</svg>
