<svg xmlns="http://www.w3.org/2000/svg" data-name="Layer 1" viewBox="0 0 517 516"><g data-name="securing money"><path d="M417.3,416.58a15.73,15.73,0,0,0-4.34-7.49,49,49,0,0,0-11-8.68c-2-1.14-4-2.23-6.09-3.28A116.84,116.84,0,0,1,385.29,391c-1.82-1.18-3.59-2.45-5.36-3.71a10,10,0,0,1-2.19-2.11,1,1,0,0,1,0-1.3c.8-1,1.57-2.05,2.4-3a144.91,144.91,0,0,1,10.25-10.78c.62-.62,1.28-1.22,1.88-1.86s.47-1.23-.41-1.52c-.32-.11-.66-.15-1-.23a43.81,43.81,0,0,0-13-.55,80.5,80.5,0,0,0-9.27,1.33,4.19,4.19,0,0,1-2.48,0l.57-1a23.53,23.53,0,0,0,1.25-2.09,2,2,0,0,0-1.06-2.88,5.14,5.14,0,0,0-2-.48,33.75,33.75,0,0,0-6.51.23,28.42,28.42,0,0,1-5,.59c-.31,0-.69.09-.88-.42a6.24,6.24,0,0,1,1.21-2c.49-.73,1-1.45,1.44-2.22.87-1.63.09-2.86-1.38-3.41a8.53,8.53,0,0,0-2.17-.49,48.71,48.71,0,0,0-15.35,1.49c-1.46.34-1.73,1-1.1,2.38a59.64,59.64,0,0,0,3.67,6.58c3.89,6.21,7.36,12.68,11.47,18.76a1.14,1.14,0,0,1,0,1.47,17.37,17.37,0,0,1-2.66,3.08,40.45,40.45,0,0,1-5,3.8c-2.73,1.78-5.43,3.61-8.17,5.37a26.56,26.56,0,0,0-6.64,5.95c-.91.14-.54-.41-.45-.82s.08-.81.15-1.21a45.57,45.57,0,0,0-.87-19,47.14,47.14,0,1,0-61.19,56.13l2.7.91c-.17.46-.56.63-.88.87a4.07,4.07,0,0,0-1.64,2,11.22,11.22,0,0,0-.68,3.36,12.29,12.29,0,0,0,.77,5,1.7,1.7,0,0,1,.06,1.38,7,7,0,0,0,.48,5.71,13.83,13.83,0,0,0,1.65,2.8.79.79,0,0,1,.22.91c-1,2.06-.28,3.95.6,5.85A4.51,4.51,0,0,0,272,468.6a37.57,37.57,0,0,0,9.26,1.2c5.3-.12,10.6-.15,15.9-.17,6,0,11.95-.19,17.92-.64a120.73,120.73,0,0,0,12.7-1.74,48.31,48.31,0,0,0,6.93-1.59c3.37-1.16,4.42-2.87,4.49-6.42a4.23,4.23,0,0,0-.59-2.14,1.33,1.33,0,0,1,.09-1.49,5.89,5.89,0,0,0,1-4.66c-.14-.52.18-.91.36-1.34a6.65,6.65,0,0,0,.5-4.56,4.35,4.35,0,0,1,0-1.2,3.28,3.28,0,0,1,1.63-.17c3.13,0,6.25,0,9.38,0,4.69,0,9.37-.21,14-.62,4.19-.37,8.37-.93,12.55-1.44,5.19-.64,10.36-1.37,15.47-2.52a66.92,66.92,0,0,0,12.06-3.61,24.85,24.85,0,0,0,7.52-4.78C417.28,426.79,418.5,422.05,417.3,416.58Zm-68.32-39c-3.6-5.92-7.16-11.86-10.73-17.79-.52-.87-1-1.77-1.5-2.66a1,1,0,0,1-.19-1,20,20,0,0,1,4.15-.83,47.62,47.62,0,0,1,7.9-.69,26.09,26.09,0,0,1,2.65.11c3.23.36,3.05,1.05,1.55,3.13a20.33,20.33,0,0,0-1.7,2.53c-.77,1.51-.08,2.69,1.62,2.87a11.39,11.39,0,0,0,3.24-.17,35,35,0,0,1,8.1-.66,5,5,0,0,1,2,.34.7.7,0,0,1,.39,1c-.29.54-.64,1-.95,1.57a10,10,0,0,0-.88,1.6,1.44,1.44,0,0,0,1.24,2.08,7.39,7.39,0,0,0,1.82,0c1.28-.17,2.55-.4,3.82-.62a63.08,63.08,0,0,1,14.39-1c1.28.07,2.56.3,3.84.46a.39.39,0,0,1,.21.62c-.33.34-.67.67-1,1a101,101,0,0,0-12.27,13.3,1.77,1.77,0,0,1-1.7.81c-5.22-.23-10.45-.41-15.67-.61-1.9-.07-3.8-.17-5.7-.2a2,2,0,0,1-1.84-1C350.85,380.39,349.85,379,349,377.56ZM235.06,392.83a45.71,45.71,0,0,1,45.74-46c25.81-.1,45.81,20.46,46.06,45.77a45.9,45.9,0,0,1-91.8.27Zm32.75,47.37A4.81,4.81,0,0,1,272.1,439a46.77,46.77,0,0,0,33.48-6.09l.52-.33c1.33-.82,1.35-.82,1.77.62a7.67,7.67,0,0,0,2.64,3.78,17.77,17.77,0,0,0,4.35,2.61,42.62,42.62,0,0,0,10.58,2.87,95.57,95.57,0,0,0,11.94,1.29,3.74,3.74,0,0,1,1,.17.6.6,0,0,1,.38.4.59.59,0,0,1-.31.46,23.11,23.11,0,0,1-2.59.48q-2.24.24-4.47.33c-4.21.19-8.42.33-12.62.54-4.82.24-9.63.41-14.46.47-5.09.1-10.18.15-15.28,0a96.24,96.24,0,0,1-17.16-2.08,15.25,15.25,0,0,1-3.68-1.14C266.5,442.47,266.37,441.45,267.81,440.2Zm66.13,10.61a2.47,2.47,0,0,1-2.3,1c-.88.05-1.05-.1-.7-.84a7,7,0,0,0,.7-3.14c0-.87.09-.93.89-1,.34,0,.68-.05.72-.05.5,0,.71,0,.91,0a.55.55,0,0,1,.54.5A5.49,5.49,0,0,1,333.94,450.81Zm-7-3.16c0-.39.26-.61.64-.64.61,0,1.22-.08,1.82-.07s.92.22.94,1v.44a5.65,5.65,0,0,1-1.66,3.57c-.52.57-1.39.4-2.11.48a.3.3,0,0,1-.28-.42A8.76,8.76,0,0,0,327,447.65Zm-5,6.63a4.41,4.41,0,0,1,2.58-.26.61.61,0,0,1,.39.39c.25,1.55.43,3.1-.78,4.39a1.56,1.56,0,0,1-.63.47,4.3,4.3,0,0,1-2.56.11c.25-1.18.48-2.3.72-3.41C321.78,455.39,321.36,454.54,321.94,454.28Zm2.71-2.32a1.75,1.75,0,0,1-1.39.69c-.73,0-1.46,0-2.47,0a8.88,8.88,0,0,0,.54-4.64c-.06-.38.18-.62.58-.64,1-.05,2-.1,3-.12a.64.64,0,0,1,.72.55A4.94,4.94,0,0,1,324.65,452Zm-8.23-3.47c-.05-.71.09-.88.74-.95,2.71-.33,3.19-.36,2.93,2.83l0,.2c-.38,1.88-.93,2.34-2.87,2.37-.27,0-.53,0-1.06-.06A17.07,17.07,0,0,0,316.42,448.49Zm-4.5.12c0-.67.13-.86.79-.88,2.42-.08,2.68-.37,2.46,2.47-.23,3.09-.33,3-3.52,2.71A10.54,10.54,0,0,0,311.92,448.61Zm-6.43,3.64c-.25.94-.37,1.08-1.38,1.06a8.42,8.42,0,0,1-1-.08.71.71,0,0,1-.64-.67l-.3-2.82c-.18-1.64-.3-1.73,1.47-1.72.34,0,.68,0,1,0a.7.7,0,0,1,.69.61A8.45,8.45,0,0,1,305.49,452.25Zm-6.28.86a1.54,1.54,0,0,1-1.53-1,4.5,4.5,0,0,1-.7-3.28c.12-.41.34-.74.83-.74,3.14,0,2.92-.51,3.16,2.59l0,.61C301.16,453.24,301.21,453.13,299.21,453.11Zm-23.1-2.62c.26,1.47.27,1.47-1.12,1.34l-.4,0c-1.81-.22-2.47-.85-2.73-2.64a5.05,5.05,0,0,1,0-1.4c.19-1.7.46-1.87,2.05-1.47l.19.05c.62.23,1.52-.08,1.85.57a4.38,4.38,0,0,1,.05,1.78h-.08C276,449.29,276,449.89,276.11,450.49Zm-3.45,2.31c1.57.38,1.58.39,1.64,2.05a8.3,8.3,0,0,0,.76,2.91c.2.48.64.9.48,1.49-3,.83-4.43-1.3-5.13-3.28a7.25,7.25,0,0,1,.1-3.65Zm2.92,1.27c.05-.38.23-.66.63-.65,1,0,1.9.11,2.84.19.37,0,.68.25.65.64a9.55,9.55,0,0,0,1.11,5.2c-.55,0-.88,0-1.21.09-1.63.26-2.53-.62-3.16-2A6.26,6.26,0,0,1,275.58,454.07Zm4.54-1.76c-2.14-.13-2.51-.46-2.84-2.57a5.42,5.42,0,0,1,0-.81c0-2.08.4-2.18,2.09-1.83.33.07.67.12,1,.16a.67.67,0,0,1,.67.83,7.61,7.61,0,0,0,.63,3.56c.15.37-.08.65-.49.66Zm2,1.5c.61,0,1.22,0,1.83.06,1.15,0,1.45.08,1.31,1.4a9.1,9.1,0,0,0,.9,4.39,7.1,7.1,0,0,1-3.33-.17,1.53,1.53,0,0,1-.74-.65,6.2,6.2,0,0,1-1.19-3.81C281,454.09,281.25,453.81,282.16,453.81Zm3-1.2a2,2,0,0,1-2.39-1.62,10.82,10.82,0,0,1-.48-1.53c-.3-1.89.18-2,1.61-1.82a2.75,2.75,0,0,0,.4,0c1.7.1,1.72.1,1.77,1.77a13,13,0,0,0,.72,3.17A14.24,14.24,0,0,0,285.18,452.61Zm1.4,2.42c.07-.69.3-.89,1.05-.92h.61c1.95.06,2.18-.18,1.92,1.92a8,8,0,0,0,.81,3.84c-.44.05-.64.1-.84.1-2.32,0-2.72-.31-3.36-2.54A6.48,6.48,0,0,1,286.58,455Zm4.05-2.29c-2.21.05-2.86-.5-3.21-2.67q0-.3-.06-.6c0-1.5.14-1.78,1.55-1.52.65.12,1.36-.11,2,.33a8,8,0,0,0,.49,3.73c.18.41,0,.67-.4.71Zm3.06,1.47a7.34,7.34,0,0,1,.81.05c.3,0,.53.2.48.51a10,10,0,0,0,.79,5.43,3.14,3.14,0,0,1-.6.16c-2.26,0-3.17-.74-3.64-2.92a4.88,4.88,0,0,1-.11-1C291.48,454,291.56,454.22,293.69,454.21Zm1.63-1.28c-1.93.23-2.59-.9-3-2.55a5.08,5.08,0,0,1-.07-1.41c0-.62.27-.87.86-.89.8,0,1.61,0,2.72,0a7.58,7.58,0,0,0,.63,4.79C296,452.89,295.65,452.9,295.32,452.93Zm-29-8.93c.87.37,1.6.71,2.34,1s1.4.47,2.23.75c-.3,1.66-.74,3.3-.08,5-.74.33-1.29-.06-1.82-.23a10.69,10.69,0,0,1-1.63-.8.58.58,0,0,1-.24-.31A9.78,9.78,0,0,1,266.33,444Zm.39,9.76a5.79,5.79,0,0,1-.06-1.61c0-.86.41-1.09,1.16-.77l.37.15a1.09,1.09,0,0,1,.83,1.39,8.26,8.26,0,0,0-.06,1,7,7,0,0,0,1,4.26,2,2,0,0,1,.27.53.39.39,0,0,1-.1.33.44.44,0,0,1-.37,0,2.34,2.34,0,0,1-.64-.48A11.3,11.3,0,0,1,266.72,453.76Zm3.95,12.74a7.12,7.12,0,0,1-1.45-2.64,4.2,4.2,0,0,1-.2-2.6c.07-.27.17-.57.45-.62.49-.08.47.35.51.66a16.15,16.15,0,0,0,1.18,4.7C271.3,466.47,271.09,466.58,270.67,466.5Zm5.26,1.74c-.17.18-.36.07-.54,0a5.3,5.3,0,0,1-2.82-2.48,12.6,12.6,0,0,1-1.32-4.21c-.12-.76.1-1,.82-1h.46l.35,0c1.67.13,1.73.2,1.83,1.95a7.3,7.3,0,0,1,0,.81,6.78,6.78,0,0,0,1.22,4.4A.4.4,0,0,1,275.93,468.24Zm3,.26a1.31,1.31,0,0,1-1-.55,7,7,0,0,1-1.92-5c0-2.49-.18-2.2,2.12-2.14.27,0,.54,0,.81.05a.66.66,0,0,1,.63.67,4.19,4.19,0,0,1,0,.61,11.77,11.77,0,0,0,.79,6.17A2.76,2.76,0,0,1,278.9,468.5Zm5.3-.31c-1.72.46-1.85.4-2.6-.69a5.89,5.89,0,0,1-.83-2.67,16.58,16.58,0,0,1,.06-3.23.66.66,0,0,1,.81-.68c.86.08,1.72.18,2.72.29A11.06,11.06,0,0,0,284.2,468.19Zm4.43-6.23c-.11.39-.27.76-.38,1.15a6.3,6.3,0,0,0,.16,4.56,2.61,2.61,0,0,1,.1.57c-2.42.63-3.25-.05-3.49-2.74a6.65,6.65,0,0,1,.31-3c.43-1.09.77-1.32,2-1.29a5.52,5.52,0,0,1,.81.06C288.54,461.32,288.74,461.58,288.63,462Zm2.16,6.43a.77.77,0,0,1-.65-.43,5.56,5.56,0,0,1,0-6.11.85.85,0,0,1,.67-.38,6.77,6.77,0,0,1,1,0c.58.1,1.32-.15,1.68.41s-.17,1-.24,1.55a7,7,0,0,0,.25,3.6c.13.3.21.61.36,1.06C292.77,468.23,291.78,468.33,290.79,468.39Zm8-4.79a10.34,10.34,0,0,0-.09,4.32,1.51,1.51,0,0,1-1.23.33c-1.76,0-2.24-.31-2.8-1.95a4.53,4.53,0,0,1-.13-2.6c.5-2,.57-1.91,2.27-1.81.47,0,.95,0,1.42.08s.66.26.64.82A4.36,4.36,0,0,1,298.78,463.6Zm.44-3a2.42,2.42,0,0,1-2.48-1.68,6.66,6.66,0,0,1-.45-3.94.72.72,0,0,1,.87-.63l2.92.28a9.34,9.34,0,0,0-.33,3,9.21,9.21,0,0,0,1,2.73A3.06,3.06,0,0,1,299.22,460.62Zm4.8,4.13a6,6,0,0,1-.08,1c-.15.78.22,1.81-.51,2.28s-1.84.25-2.77.2a.59.59,0,0,1-.55-.51,6.31,6.31,0,0,1-.28-2.4c.1-.81.19-1.62.29-2.42s.21-.87,1-.92h.2C304,462,304.09,461.5,304,464.75Zm.58-4.28a2.57,2.57,0,0,1-3.11-1.62,4.25,4.25,0,0,1-.51-1.94c0-1.28.54-2.58,2.28-2.3l.64,0a.73.73,0,0,1,.7.59,28.71,28.71,0,0,1,.63,4.61C305.28,460.25,305,460.42,304.6,460.47Zm4.32,6.93a1.19,1.19,0,0,1-1.12.72,7.78,7.78,0,0,1-2.66-.15,39.31,39.31,0,0,0,.14-5.3.67.67,0,0,1,.71-.78c.34,0,.68,0,1-.07,2.19-.34,1.91.18,2.32,1.64A4.91,4.91,0,0,1,308.92,467.4Zm-3-12.55a2.83,2.83,0,0,1,1.63-.24c2.15-.05,2-.2,2,1.93a27,27,0,0,1-.11,2.84c-.07.7-.35.9-1.07,1-.34,0-.68,0-1,0s-.7-.25-.76-.73C306.36,458,306.13,456.44,305.91,454.85Zm3.19-1.71c-.54,0-1.08,0-1.62,0s-.72-.22-.64-.76a9.72,9.72,0,0,0-.16-3.4c-.19-.92,0-1.11.85-1.17.4,0,.8,0,1.21,0v-.06c.4,0,.8,0,1.2,0s.58.14.62.43a7.75,7.75,0,0,1-.1,4A1.31,1.31,0,0,1,309.1,453.14Zm4.76,13.79a1.14,1.14,0,0,1-1.13,1h-2.42a8.07,8.07,0,0,0,.48-3.15c-.11-1-.31-2-.46-2.92.12-.08.17-.14.23-.15,3.08-.38,3.09-.55,3.53,2.64A7.25,7.25,0,0,1,313.86,466.93Zm-1.47-6.83c-.34,0-.67.08-1,.1s-.64-.16-.63-.58.07-.81.08-1.22,0-.68,0-1h0v-.2c-.12-3.17-.4-2.49,2.67-2.79.84-.09,1.09.16,1.28,1a5.16,5.16,0,0,1,0,2.81C314.32,459.67,314,460,312.39,460.1Zm5.53,7a1.64,1.64,0,0,1-.71.35,5.64,5.64,0,0,1-2.29.06,7.73,7.73,0,0,0,.08-5.4c-.14-.53,0-.76.53-.83.34,0,.68-.05,1-.07,2-.13,2.25.08,2.68,2.07A4,4,0,0,1,317.92,467.14Zm.22-7.33a5.75,5.75,0,0,1-2.44,0c.15-.54.28-1.06.44-1.57a5.73,5.73,0,0,0-.1-3c-.13-.67,0-.89.67-.92s1.48-.07,2.22-.08c1.33,0,1.6.25,1.47,1.49a8.63,8.63,0,0,1-.85,3.1A1.66,1.66,0,0,1,318.14,459.81Zm5.95,5.42c-.42,1.3-.7,1.64-1.92,1.69-.67,0-1.33.15-2,.23-.05,0-.11-.08-.23-.18a6,6,0,0,0,.19-5c-.22-.62-.05-.83.61-1a5.77,5.77,0,0,1,.6-.1c2.2-.2,2.06-.3,2.7,1.94A4.09,4.09,0,0,1,324.09,465.23Zm3.82-.3c-.34.73-.75,1.27-1.61,1.31-.27,0-.53.06-.77.09-.06-.11-.12-.17-.12-.23a11,11,0,0,0-.46-4.79c-.18-.49.05-.79.54-.87.34-.05.68-.07,1-.11a.94.94,0,0,1,1.07.7C328.11,462.3,328.56,463.55,327.91,464.93Zm-.22-6.17c-.53.05-1.05.13-1.81.22a11.1,11.1,0,0,0,.39-4.46.58.58,0,0,1,.55-.69c.73-.1,1.47-.2,2.2-.28.45,0,.73.25.75.75a7.06,7.06,0,0,1-1.12,3.81A1.25,1.25,0,0,1,327.69,458.76Zm5.69,5.16A1.23,1.23,0,0,1,332.3,465c-.92.17-1.84.4-3.11.68a6.82,6.82,0,0,0-.39-5c-.18-.39,0-.64.43-.7.86-.15,1.73-.3,2.6-.42s1.13,0,1.45,1A6.54,6.54,0,0,1,333.38,463.92Zm.64-8.51a2.76,2.76,0,0,1-.06.4c-.37,1.95-1.49,2.65-3.7,2.3A11.89,11.89,0,0,0,331,454a.63.63,0,0,1,.57-.7C334,452.8,334.29,452.64,334,455.41ZM336.9,463c-.49.78-.76.88-2.07.91a12.26,12.26,0,0,0-.52-4.38.53.53,0,0,1,.31-.67c.49-.23,1-.39,1.5-.59,1.46-.58,1.89-.3,1.85,1.3A6.57,6.57,0,0,1,336.9,463Zm1.26-9a12,12,0,0,1-1.65,2.52,1.12,1.12,0,0,1-1.34.4,17.56,17.56,0,0,0,.13-3.77.56.56,0,0,1,.41-.62c.76-.27,1.53-.53,2.3-.75.3-.08.5.13.52.45A4.36,4.36,0,0,1,338.16,454Zm1.15-6.17a3.2,3.2,0,0,1-2.63,2.94c-.32.08-.69.32-.95.12s-.12-.74,0-1.11a8.16,8.16,0,0,0,.24-2.41c0-.68.11-.73.85-.88l1.78-.35c.65-.13.95.11.87.87C339.45,447.16,339.36,447.49,339.31,447.82Zm76.26-23.5a11.72,11.72,0,0,1-2.67,4.52,18.6,18.6,0,0,1-4.77,3.78,36.89,36.89,0,0,1-7.88,3.26,122.49,122.49,0,0,1-15.52,3.34c-6,.9-12,1.58-18,2.26-1.14.13-2.3.12-3.45.18-.54.14-1.09.34-1.4-.37a9.61,9.61,0,0,0,1.3-5.6,2.14,2.14,0,0,1,1.87-2.32,17.41,17.41,0,0,0,4.5-1.87c4.54-2.69,6.3-6.81,5.75-11.9-.5-4.63-3.63-7.11-7.74-8.53s-4.19-1.41-4.44-5.79a23.63,23.63,0,0,1-.35-3.84c.17-1.61.93-2,2.34-1.15a5.66,5.66,0,0,1,1.62,1.79,1.55,1.55,0,0,0,1.94.71c.94-.38,1-1.21.86-2.06a5.56,5.56,0,0,0-4-4.22c-2.39-.81-3.6-2.18-3.65-4.69,0-.94-.51-1.77-1.64-1.69s-1.34.95-1.24,1.78c.29,2.55-.87,3.87-3.13,5a11.84,11.84,0,0,0-6.32,8.08c-1.35,5.53,2.17,10.2,7.84,10.18,1.32,0,1.87.5,1.94,1.74a92.75,92.75,0,0,1-.45,11.79c-.07.92-.59,1.28-1.51,1.23A8.86,8.86,0,0,1,352.1,428a14.85,14.85,0,0,1-3-3.08c-.79-1.14-1.56-2.59-3.18-1.46s-.6,2.51.12,3.6a14.18,14.18,0,0,0,10.26,6.63c2.68.36,3,.69,3,3.36a6.47,6.47,0,0,0,1.21,4c0,1.32-1.19.43-1.66.89-4.88.38-9.77.36-14.66.3-3,0-6,0-9-.24a80.07,80.07,0,0,1-15.47-2.39,30.49,30.49,0,0,1-5.33-2,12.58,12.58,0,0,1-3.79-2.71,5.31,5.31,0,0,1-1.17-1.89c-.63-1.87-.49-2.39,1.07-3.66a46.88,46.88,0,0,0,15.05-21.6,9.3,9.3,0,0,1,1.29-2.53,27.86,27.86,0,0,1,7.44-7.16c3.38-2.15,6.7-4.4,10-6.62a26.85,26.85,0,0,0,5.57-4.74,1.39,1.39,0,0,1,1.42-.52,125.6,125.6,0,0,0,18.28,1.13,34.42,34.42,0,0,0,6.49-.57,1.07,1.07,0,0,1,1.11.2c4.11,4,9,6.7,13.94,9.5,2.35,1.35,4.78,2.57,7.19,3.81a52.84,52.84,0,0,1,12.52,9,20.48,20.48,0,0,1,3.24,3.91A13.08,13.08,0,0,1,415.57,424.32Z"/><path fill="#f38704" d="M326.86,392.56a45.9,45.9,0,1,1-46.06-45.77C306.61,346.69,326.61,367.25,326.86,392.56Z"/><path fill="#f38704" d="M358.86 441.93c-4.88.38-9.77.36-14.66.3-3 0-6 0-9-.24a80.07 80.07 0 01-15.47-2.39 30.49 30.49 0 01-5.33-2 12.46 12.46 0 01-3.79-2.71 5.31 5.31 0 01-1.17-1.89c-.63-1.87-.49-2.39 1.07-3.66a46.88 46.88 0 0015.05-21.6 9.3 9.3 0 011.29-2.53 27.86 27.86 0 017.44-7.16c3.38-2.15 6.7-4.4 10-6.62a26.85 26.85 0 005.57-4.74 1.39 1.39 0 011.42-.52 125.6 125.6 0 0018.28 1.13 34.35 34.35 0 006.49-.57 1.07 1.07 0 011.11.2c4.11 4 9 6.7 13.94 9.5 2.35 1.35 4.78 2.57 7.2 3.81a53 53 0 0112.51 9 20.48 20.48 0 013.24 3.91 13.08 13.08 0 011.45 11.14 11.72 11.72 0 01-2.67 4.52 18.6 18.6 0 01-4.77 3.78 36.89 36.89 0 01-7.88 3.26 122.49 122.49 0 01-15.52 3.34c-6 .9-12 1.58-18 2.26-1.14.13-2.3.12-3.45.18-.54.14-1.09.34-1.4-.37a9.61 9.61 0 001.3-5.6 2.14 2.14 0 011.87-2.32 17.41 17.41 0 004.5-1.87c4.54-2.69 6.3-6.81 5.75-11.9-.5-4.63-3.63-7.11-7.74-8.53s-4.19-1.41-4.44-5.79a23.63 23.63 0 01-.35-3.84c.17-1.61.93-2 2.34-1.15a5.66 5.66 0 011.62 1.79 1.55 1.55 0 001.94.71c.94-.38 1-1.21.86-2.06a5.56 5.56 0 00-4-4.22c-2.39-.81-3.6-2.18-3.65-4.69 0-.94-.51-1.77-1.64-1.69s-1.34.95-1.24 1.78c.29 2.55-.87 3.87-3.13 5a11.84 11.84 0 00-6.32 8.08c-1.35 5.53 2.17 10.2 7.84 10.18 1.32 0 1.87.5 1.94 1.74a92.75 92.75 0 01-.45 11.79c-.07.92-.59 1.28-1.51 1.23A8.86 8.86 0 01352.1 428a15.16 15.16 0 01-3-3.08c-.78-1.14-1.55-2.59-3.17-1.46s-.6 2.51.12 3.6a14.18 14.18 0 0010.26 6.63c2.68.36 3 .69 3 3.36a6.47 6.47 0 001.21 4C360.52 442.36 359.33 441.47 358.86 441.93zM336.56 356.15a20 20 0 014.15-.83 47.62 47.62 0 017.9-.69 23.49 23.49 0 012.65.11c3.23.36 3.05 1.05 1.55 3.13a20.33 20.33 0 00-1.7 2.53c-.77 1.51-.08 2.69 1.62 2.87a11.39 11.39 0 003.24-.17 35 35 0 018.1-.66 5 5 0 012 .34.7.7 0 01.39 1c-.29.54-.64 1-.95 1.57a10 10 0 00-.88 1.6 1.44 1.44 0 001.24 2.08 7.39 7.39 0 001.82 0c1.28-.17 2.55-.4 3.82-.62a63.08 63.08 0 0114.39-1c1.28.07 2.56.3 3.84.46a.39.39 0 01.21.62c-.33.34-.67.67-1 1a101 101 0 00-12.27 13.3 1.77 1.77 0 01-1.7.81c-5.22-.23-10.45-.41-15.67-.61-1.9-.07-3.8-.17-5.7-.2a2 2 0 01-1.84-1c-.89-1.44-1.89-2.82-2.76-4.27-3.6-5.92-7.16-11.86-10.73-17.79-.52-.87-1-1.77-1.5-2.66A1 1 0 01336.56 356.15z"/><path fill="#f38704" d="M304.3,446.55c-5.09.1-10.18.15-15.28,0a96.24,96.24,0,0,1-17.16-2.08,15.25,15.25,0,0,1-3.68-1.14c-1.68-.84-1.81-1.86-.37-3.11A4.81,4.81,0,0,1,272.1,439a46.77,46.77,0,0,0,33.48-6.09l.52-.33c1.33-.82,1.35-.82,1.77.62a7.67,7.67,0,0,0,2.64,3.78,17.77,17.77,0,0,0,4.35,2.61,42.62,42.62,0,0,0,10.58,2.87,95.57,95.57,0,0,0,11.94,1.29,3.74,3.74,0,0,1,1,.17.6.6,0,0,1,.38.4.59.59,0,0,1-.31.46,23.11,23.11,0,0,1-2.59.48c-1.49.16-3,.26-4.47.33-4.21.19-8.42.33-12.62.54C313.94,446.32,309.13,446.49,304.3,446.55Z"/><path fill="#ee8404" d="M270.51,452.32l2.15.48c1.57.38,1.58.39,1.64,2.05a8.3,8.3,0,0,0,.76,2.91c.2.48.64.9.48,1.49-3,.83-4.43-1.3-5.13-3.28A7.25,7.25,0,0,1,270.51,452.32Z"/><path fill="#ef8504" d="M293.87,468.13c-1.1.1-2.09.2-3.08.26a.77.77,0,0,1-.65-.43,5.56,5.56,0,0,1,0-6.11.85.85,0,0,1,.67-.38,6.77,6.77,0,0,1,1,0c.58.1,1.32-.15,1.68.41s-.16,1-.24,1.55a7,7,0,0,0,.25,3.6C293.64,467.37,293.72,467.68,293.87,468.13Z"/><path fill="#f18504" d="M305.14,468a39.31,39.31,0,0,0,.14-5.3.67.67,0,0,1,.71-.78c.34,0,.68,0,1-.07,2.19-.34,1.91.18,2.32,1.64a4.91,4.91,0,0,1-.4,3.94,1.19,1.19,0,0,1-1.12.72A7.78,7.78,0,0,1,305.14,468Z"/><path fill="#ef8504" d="M304,464.75a6,6,0,0,1-.08,1c-.15.78.22,1.81-.51,2.28s-1.84.25-2.77.2a.59.59,0,0,1-.55-.51,6.31,6.31,0,0,1-.28-2.4c.1-.81.19-1.62.29-2.42s.21-.87,1-.92h.2C304,462,304.09,461.5,304,464.75Z"/><path fill="#ec8304" d="M286.2,459.66a7.1,7.1,0,0,1-3.33-.17,1.53,1.53,0,0,1-.74-.65,6.2,6.2,0,0,1-1.19-3.81c0-.94.31-1.22,1.22-1.22.61,0,1.22,0,1.83.06,1.15,0,1.45.08,1.31,1.4A9.1,9.1,0,0,0,286.2,459.66Z"/><path fill="#ed8404" d="M280.29,468.33a2.65,2.65,0,0,1-1.39.16,1.27,1.27,0,0,1-1-.54,7,7,0,0,1-1.92-5c0-2.49-.18-2.2,2.12-2.14.27,0,.54,0,.81.05a.66.66,0,0,1,.63.67,4.19,4.19,0,0,1,0,.61A11.77,11.77,0,0,0,280.29,468.33Z"/><path fill="#f08504" d="M298.69,467.92a1.51,1.51,0,0,1-1.23.33c-1.76,0-2.24-.31-2.8-1.95a4.53,4.53,0,0,1-.13-2.6c.5-2,.57-1.91,2.27-1.81.47,0,.95,0,1.42.08s.66.26.64.82a4.36,4.36,0,0,1-.08.81A10.34,10.34,0,0,0,298.69,467.92Z"/><path fill="#ee8504" d="M314.92,467.55a7.73,7.73,0,0,0,.08-5.4c-.14-.53,0-.76.53-.83.34,0,.68-.05,1-.07,2-.13,2.25.08,2.68,2.07a4,4,0,0,1-1.3,3.82,1.64,1.64,0,0,1-.71.35A5.64,5.64,0,0,1,314.92,467.55Z"/><path fill="#ed8404" d="M329.19,465.65a6.82,6.82,0,0,0-.39-5c-.18-.39,0-.64.43-.7.86-.15,1.73-.3,2.6-.42s1.13,0,1.45,1a6.54,6.54,0,0,1,.1,3.4A1.23,1.23,0,0,1,332.3,465C331.38,465.14,330.46,465.37,329.19,465.65Z"/><path fill="#ee8404" d="M280.81,459.45c-.55,0-.88,0-1.21.09-1.63.26-2.53-.62-3.16-2a6.26,6.26,0,0,1-.86-3.51c.05-.38.23-.66.63-.65,1,0,1.9.11,2.84.19.37,0,.68.25.65.64A9.55,9.55,0,0,0,280.81,459.45Z"/><path fill="#ed8304" d="M310.83,457.38v-.2c-.12-3.17-.4-2.49,2.67-2.79.84-.09,1.09.16,1.28,1a5.16,5.16,0,0,1,0,2.81c-.49,1.51-.81,1.79-2.42,1.94-.34,0-.67.08-1,.1s-.64-.16-.63-.58.07-.81.08-1.22,0-.68,0-1Z"/><path fill="#ec8304" d="M315.7,459.77c.15-.54.28-1.06.44-1.57a5.73,5.73,0,0,0-.1-3c-.13-.67,0-.89.67-.92s1.48-.07,2.22-.08c1.33,0,1.6.25,1.47,1.49a8.63,8.63,0,0,1-.85,3.1,1.66,1.66,0,0,1-1.41,1A5.75,5.75,0,0,1,315.7,459.77Z"/><path fill="#ee8404" d="M266.33,444c.87.37,1.59.71,2.34,1s1.4.47,2.23.75c-.3,1.66-.74,3.3-.08,5-.74.33-1.29-.06-1.82-.23a10.69,10.69,0,0,1-1.63-.8.58.58,0,0,1-.24-.31A9.78,9.78,0,0,1,266.33,444Z"/><path fill="#ed8404" d="M319.94,467a6,6,0,0,0,.19-5c-.22-.62-.05-.83.61-1a5.77,5.77,0,0,1,.6-.1c2.2-.2,2.06-.3,2.7,1.94a4.09,4.09,0,0,1,0,2.4c-.42,1.3-.7,1.64-1.92,1.69-.67,0-1.33.15-2,.23C320.12,467.15,320.06,467.07,319.94,467Z"/><path fill="#ee8404" d="M320.79,452.64a8.88,8.88,0,0,0,.54-4.64c-.06-.38.18-.62.58-.64,1-.05,2-.1,3-.12a.64.64,0,0,1,.72.55,4.94,4.94,0,0,1-1,4.17,1.75,1.75,0,0,1-1.39.69C322.53,452.63,321.8,452.64,320.79,452.64Z"/><path fill="#ed8404" d="M284.2,468.19c-1.72.46-1.85.4-2.6-.69a5.89,5.89,0,0,1-.83-2.67,16.58,16.58,0,0,1,.06-3.23.66.66,0,0,1,.81-.68c.86.08,1.72.18,2.72.29A11.06,11.06,0,0,0,284.2,468.19Z"/><path fill="#ed8304" d="M310.31,467.92a8.07,8.07,0,0,0,.48-3.15c-.11-1-.31-2-.46-2.92.12-.08.17-.14.23-.15,3.08-.38,3.09-.55,3.53,2.64a7.25,7.25,0,0,1-.23,2.59,1.14,1.14,0,0,1-1.13,1Z"/><path fill="#ec8304" d="M288.51,468.24c-2.42.63-3.25-.05-3.49-2.74a6.65,6.65,0,0,1,.31-3c.43-1.09.77-1.32,2-1.29a5.52,5.52,0,0,1,.81.06c.41.05.61.31.5.69s-.27.76-.38,1.15a6.3,6.3,0,0,0,.16,4.56A2.61,2.61,0,0,1,288.51,468.24Z"/><path fill="#ef8504" d="M275.92,448.68c.06.61.09,1.21.19,1.81.26,1.47.27,1.47-1.12,1.34l-.4,0c-1.81-.22-2.47-.85-2.73-2.64a5.05,5.05,0,0,1,0-1.4c.19-1.7.46-1.87,2.05-1.47l.19.05c.62.23,1.52-.08,1.85.57a4.38,4.38,0,0,1,.05,1.78Z"/><path fill="#ed8304" d="M300.79,460.4a3.06,3.06,0,0,1-1.57.22,2.42,2.42,0,0,1-2.48-1.68,6.66,6.66,0,0,1-.45-3.94.72.72,0,0,1,.87-.63l2.92.28a9.34,9.34,0,0,0-.33,3A9.21,9.21,0,0,0,300.79,460.4Z"/><path fill="#ec8204" d="M272.53,460.52l.35,0c1.67.13,1.73.2,1.83,1.95a7.3,7.3,0,0,1,0,.81,6.78,6.78,0,0,0,1.22,4.4.4.4,0,0,1,0,.54c-.17.18-.36.07-.54,0a5.3,5.3,0,0,1-2.82-2.48,12.6,12.6,0,0,1-1.32-4.21c-.12-.76.1-1,.82-1Z"/><path fill="#ed8404" d="M303.26,454.61l.64,0a.73.73,0,0,1,.7.59,28.71,28.71,0,0,1,.63,4.61c0,.41-.27.58-.63.63a2.57,2.57,0,0,1-3.11-1.62,4.25,4.25,0,0,1-.51-1.94C301,455.63,301.52,454.33,303.26,454.61Z"/><path fill="#ef8404" d="M295.77,460.2a3.14,3.14,0,0,1-.6.16c-2.26,0-3.17-.74-3.64-2.92a4.88,4.88,0,0,1-.11-1c.06-2.48.14-2.21,2.27-2.22a7.34,7.34,0,0,1,.81.05c.3,0,.53.2.48.51A10,10,0,0,0,295.77,460.2Z"/><path fill="#ed8504" d="M308.74,447.77c.4,0,.8,0,1.2,0s.58.14.62.43a7.75,7.75,0,0,1-.1,4,1.31,1.31,0,0,1-1.36,1c-.54,0-1.08,0-1.62,0s-.72-.22-.64-.76a9.72,9.72,0,0,0-.16-3.4c-.19-.92,0-1.11.85-1.17.4,0,.8,0,1.21,0Z"/><path fill="#ee8304" d="M291,459.87c-.44.05-.64.1-.84.1-2.32,0-2.72-.31-3.36-2.54a6.48,6.48,0,0,1-.19-2.4c.07-.69.3-.89,1.05-.92h.61c1.95.06,2.18-.18,1.92,1.92A8,8,0,0,0,291,459.87Z"/><path fill="#eb8204" d="M316.13,452.88a17.07,17.07,0,0,0,.29-4.39c-.05-.71.09-.88.74-.95,2.71-.33,3.19-.36,2.93,2.83l0,.2c-.38,1.88-.93,2.34-2.87,2.37C316.92,452.94,316.66,452.91,316.13,452.88Z"/><path fill="#ee8404" d="M280.12,452.31c-2.14-.13-2.51-.46-2.84-2.57a5.42,5.42,0,0,1,0-.81c0-2.08.4-2.18,2.09-1.83.33.07.67.12,1,.16a.67.67,0,0,1,.67.83,7.61,7.61,0,0,0,.63,3.56c.15.37-.08.65-.49.66Z"/><path fill="#eb8204" d="M286.81,452.6a14.24,14.24,0,0,0-1.63,0,2,2,0,0,1-2.39-1.62,10.82,10.82,0,0,1-.48-1.53c-.3-1.89.18-2,1.61-1.82a2.75,2.75,0,0,0,.4,0c1.7.1,1.72.1,1.77,1.77A13,13,0,0,0,286.81,452.6Z"/><path fill="#ef8504" d="M301,451.29c.16,1.95.21,1.84-1.79,1.82a1.54,1.54,0,0,1-1.53-1,4.45,4.45,0,0,1-.7-3.28c.12-.41.34-.74.83-.74,3.14,0,2.92-.5,3.16,2.59Z"/><path fill="#f08504" d="M305.91,454.85a2.83,2.83,0,0,1,1.63-.24c2.15-.05,2-.2,2,1.93a27,27,0,0,1-.11,2.84c-.07.7-.35.9-1.07,1-.34,0-.68,0-1,0-.5,0-.71-.25-.77-.73C306.36,458,306.13,456.44,305.91,454.85Z"/><path fill="#eb8304" d="M320.94,459.38c.25-1.18.48-2.3.72-3.41.12-.58-.3-1.43.28-1.69a4.41,4.41,0,0,1,2.58-.26.61.61,0,0,1,.39.39c.25,1.55.43,3.1-.78,4.39a1.56,1.56,0,0,1-.63.47A4.3,4.3,0,0,1,320.94,459.38Z"/><path fill="#ea8304" d="M311.65,452.91a10.71,10.71,0,0,0,.27-4.3c0-.67.13-.86.79-.88,2.42-.08,2.68-.37,2.46,2.47C314.94,453.29,314.84,453.21,311.65,452.91Z"/><path fill="#ee8304" d="M303.63,448c.34,0,.68,0,1,0a.7.7,0,0,1,.69.61,8.45,8.45,0,0,1,.16,3.61c-.25.94-.37,1.08-1.38,1.06a8.42,8.42,0,0,1-1-.08.71.71,0,0,1-.64-.67l-.3-2.82C302,448.1,301.86,448,303.63,448Z"/><path fill="#ea8304" d="M334.83,463.93a12.26,12.26,0,0,0-.52-4.38.53.53,0,0,1,.31-.67c.49-.23,1-.39,1.5-.59,1.46-.58,1.89-.3,1.85,1.3A6.57,6.57,0,0,1,336.9,463C336.41,463.8,336.14,463.9,334.83,463.93Z"/><path fill="#e88104" d="M325.88,459a11.1,11.1,0,0,0,.39-4.46.58.58,0,0,1,.55-.69c.73-.1,1.47-.2,2.2-.28.45,0,.73.25.75.75a7.06,7.06,0,0,1-1.12,3.81,1.25,1.25,0,0,1-1,.65C327.16,458.81,326.64,458.89,325.88,459Z"/><path fill="#ec8404" d="M330.37 448.37a5.65 5.65 0 01-1.66 3.57c-.53.57-1.39.4-2.11.48a.3.3 0 01-.28-.42 8.76 8.76 0 00.65-4.35c0-.39.26-.61.64-.64.61 0 1.22-.08 1.82-.07s.92.22.94 1zM290.94 448.28a8 8 0 00.49 3.73c.18.41 0 .67-.4.71l-.41 0c-2.2.05-2.85-.5-3.2-2.67q0-.3-.06-.6c0-1.5.14-1.78 1.55-1.52C289.56 448.07 290.27 447.84 290.94 448.28z"/><path fill="#ec8204" d="M295.8,448.08a7.58,7.58,0,0,0,.63,4.79c-.45,0-.78,0-1.11.06-1.93.23-2.59-.9-3-2.55a5.08,5.08,0,0,1-.07-1.41c0-.62.27-.87.86-.89C293.88,448.06,294.69,448.08,295.8,448.08Z"/><path fill="#e98204" d="M325.53,466.33c-.06-.11-.12-.17-.12-.23a11,11,0,0,0-.46-4.79c-.18-.49.05-.79.54-.87.34-.05.68-.07,1-.11a.94.94,0,0,1,1.07.7c.54,1.27,1,2.52.34,3.9-.34.73-.75,1.27-1.61,1.31C326,466.25,325.77,466.3,325.53,466.33Z"/><path fill="#eb8204" d="M333.25,446.8c.5,0,.71,0,.91,0a.55.55,0,0,1,.54.5,5.49,5.49,0,0,1-.76,3.51,2.5,2.5,0,0,1-2.3,1c-.88,0-1.05-.11-.7-.85a7,7,0,0,0,.7-3.14c0-.87.09-.93.89-1C332.87,446.81,333.21,446.8,333.25,446.8Z"/><path fill="#eb8304" d="M330.26,458.11A11.89,11.89,0,0,0,331,454a.63.63,0,0,1,.57-.7c2.39-.49,2.69-.65,2.42,2.12a2.76,2.76,0,0,1-.06.4C333.59,457.76,332.47,458.46,330.26,458.11Z"/><path fill="#e37e04" d="M269,453.92a7,7,0,0,0,1,4.26,2,2,0,0,1,.27.53.39.39,0,0,1-.1.33.44.44,0,0,1-.37,0,2.34,2.34,0,0,1-.64-.48,11.3,11.3,0,0,1-2.43-4.82,5.79,5.79,0,0,1-.06-1.61c0-.86.41-1.09,1.16-.77l.37.15a1.09,1.09,0,0,1,.83,1.39A8.26,8.26,0,0,0,269,453.92Z"/><path fill="#e88104" d="M339.48,447c0,.16-.12.49-.17.82a3.2,3.2,0,0,1-2.63,2.94c-.32.08-.69.32-.95.12s-.12-.74,0-1.11a8.16,8.16,0,0,0,.24-2.41c0-.68.11-.73.85-.88l1.78-.35C339.26,446,339.56,446.24,339.48,447Z"/><path fill="#e57e04" d="M335.17,456.91a17.56,17.56,0,0,0,.13-3.77.56.56,0,0,1,.41-.62c.76-.27,1.53-.53,2.3-.75.3-.08.5.13.52.45a4.36,4.36,0,0,1-.37,1.77,12,12,0,0,1-1.65,2.52A1.12,1.12,0,0,1,335.17,456.91Z"/><path fill="#d57804" d="M270.67,466.5a7.12,7.12,0,0,1-1.45-2.64,4.2,4.2,0,0,1-.2-2.6c.07-.27.17-.57.45-.62.49-.08.47.35.51.66a16.15,16.15,0,0,0,1.18,4.7C271.3,466.47,271.09,466.58,270.67,466.5Z"/><path fill="#ca8704" d="M362.07,441.14c.26.52.81.38,1.23.52a12.76,12.76,0,0,1-4.44.27.83.83,0,0,1,.7-.33.9.9,0,0,0,.86-.42A1.17,1.17,0,0,1,362.07,441.14Z"/><path fill="#be6b03" d="M270.67,466.5l.49-.5a3,3,0,0,1,.85,1.3.43.43,0,0,1-.56.06A1.47,1.47,0,0,1,270.67,466.5Z"/><path fill="#7e2501" d="M271.45,467.36l.56-.06c.23.19.15.34-.1.34S271.6,467.46,271.45,467.36Z"/><path fill="#f08504" d="M282.31,402.84a2.09,2.09,0,0,1-.32-1.38q-.19-3-.31-6.1c0-.63.23-.79.9-.72a6.83,6.83,0,0,1,2.48.85,2.59,2.59,0,0,1,1.45,2.31,4.44,4.44,0,0,1-1.81,4.08A3.79,3.79,0,0,1,282.31,402.84Z"/><path fill="#ed8404" d="M276.49,385c0,1.14,0,2.29,0,3.43,0,.47-.38.69-.84.53a3,3,0,0,1-2.17-2.63,5.72,5.72,0,0,1,2.15-5.18.48.48,0,0,1,.55-.1c.22.12.2.33.2.52,0,1.14,0,2.28,0,3.43Z"/><path fill="#f28704" d="M363.71,421.85c0-2.11,0-4.21,0-6.31,0-.65.26-.88.87-.8a8.6,8.6,0,0,1,5.47,2.85,4.32,4.32,0,0,1,1,2.4,7.58,7.58,0,0,1-4.51,8.28c-.31.15-.63.26-.95.38-2.22.81-2.28.78-2.23-1.52,0-1.76.15-3.52.23-5.28Z"/><path fill="#f08504" d="M358.65,410.49c-.29.09-.61.2-.93.27-2.26.43-3.5-.39-4-2.6a5,5,0,0,1,.2-2.8,8.06,8.06,0,0,1,3.79-4.59,1.49,1.49,0,0,1,.57-.08A43.22,43.22,0,0,1,358.65,410.49Z"/><path d="M434.6,145.13q-.57-3.31-1.15-6.62a53.75,53.75,0,0,0-7-18.57q-4.68-7.77-9.73-15.3A101.34,101.34,0,0,0,409.25,95C404.4,89.36,399,84.25,393.66,79.15c-3.45-3.27-7-6.47-10.46-9.71a98.66,98.66,0,0,0-12.45-10.17c-2-1.35-4.08-2.69-6.23-3.87a41.89,41.89,0,0,0-15.13-4.49,75,75,0,0,1-10.38-2c-.81-.22-.87-.26-.81-1.11.23-3.15-.87-6-1.87-8.9a.75.75,0,0,0-1.15-.45,16.79,16.79,0,0,0-6.68,5.2,7.88,7.88,0,0,0-.57.85c-.28.54-.66.57-1.18.35-1.37-.57-2.78-1.07-4.13-1.69a38.82,38.82,0,0,0-13-3.3c-2.09-.19-4.2-.33-6.29-.56a74.81,74.81,0,0,0-14.66-.07q-9.13.77-18.19,2.22a164.71,164.71,0,0,0-20.85,4.63,148.49,148.49,0,0,0-33.44,14.22,59.83,59.83,0,0,0-7.92,5.36,115.15,115.15,0,0,0-9.17,8.08c-1.5,1.56-3.19,3-4,5.08a1.3,1.3,0,0,1-.35.49,3.12,3.12,0,0,0-.85,3,19.51,19.51,0,0,0,.31,2c.61,2.64,1.2,5.29,1.9,7.92a76.78,76.78,0,0,0,10.07,22.36,29.18,29.18,0,0,0,4.57,5.46,40.26,40.26,0,0,0,6.38,4.71c4.22,2.6,8.6,4.91,12.94,7.31,3.2,1.77,6.43,3.53,9.54,5.45,3.93,2.42,7.86,4.85,11.91,7.07,2,1.12,4,2.36,5.89,3.64,4.13,2.73,8.25,5.5,12.42,8.17,1.94,1.24,4,2.36,6,3.42,2.59,1.35,5.23,2.6,7.86,3.85a53.19,53.19,0,0,0,8.51,3.36c1.5.41,3,.82,4.53,1.18,1.88.46,2,.33,1.46,2.44q-3.23,13-6.48,26.08c-.37,1.48-.39,1.46-1.83,1.4-.81,0-1.63,0-2.44-.05a8.26,8.26,0,0,0-5.5,1.79c-1,.78-2.06,1.57-3,2.43a8.6,8.6,0,0,1-5.57,2.17,11.7,11.7,0,0,1-3.23-.37c-3.44-.78-6.81-1.85-10.18-2.88-3.82-1.18-7.61-2.45-11.42-3.69-2.84-.91-5.73-1.71-8.51-2.78-6-2.31-12.08-4.46-18.23-6.42-1.93-.61-3.84-1.33-5.75-2a3.08,3.08,0,0,1-2.06-1.52,11.67,11.67,0,0,0-5.28-5.47c-1.64-1-3.31-1.87-5-2.76-10.54-5.61-21.05-11.29-31.22-17.57a19.07,19.07,0,0,0-8-2.74q-3.15-.35-6.25-.86a9.27,9.27,0,0,1-1.38-.34c-.71-.23-.8-.33-.71-1q.41-2.82.83-5.64a.53.53,0,0,1,.56-.48h1.63a22.58,22.58,0,0,0,6.24-.78,12.72,12.72,0,0,0,9.1-7.74,22.56,22.56,0,0,0,1.52-4.85,31.51,31.51,0,0,0,.49-4.86,57.83,57.83,0,0,1,.77-8.31,17.21,17.21,0,0,1,2.79-6.93,1.27,1.27,0,0,1,.95-.68,2.64,2.64,0,0,0,2.12-1.7,9.07,9.07,0,0,0,1.08-4.5,43,43,0,0,1,.1-6.11,15.65,15.65,0,0,0-1-6.39c-1.28-4.08-6.55-8.42-9.41-9.4-.13,0-.26-.07-.39-.11a13.86,13.86,0,0,0-7.84-.17,50.66,50.66,0,0,1-16.19,1.17,21.06,21.06,0,0,0-7.84.92c-7.65,2.22-16.32,11.08-15.53,22.45a21.92,21.92,0,0,0,1.36,6.75,12.25,12.25,0,0,0,6,6.65,20.76,20.76,0,0,0,2.44,1,.69.69,0,0,1,.53.75c0,.54-.11,1.08-.18,1.62a14.2,14.2,0,0,0,.19,4.46c.4,2,1.34,3.56,3.5,4a3.25,3.25,0,0,1,.54.23A64,64,0,0,1,139.2,149a2.79,2.79,0,0,0-3,.64,5.5,5.5,0,0,1-2,1.06c-1.33.49-2.69.94-4,1.39-3.86,1.3-7.78,2.42-11.53,4-5.86,2.51-11.26,5.68-15.62,10.45a46.41,46.41,0,0,0-6.18,8.57,169.14,169.14,0,0,0-9.49,20.05A88.42,88.42,0,0,0,82.92,210a15.45,15.45,0,0,0-.27,3.65,2.74,2.74,0,0,0,1.84,2.68,12.53,12.53,0,0,0,3.91,1.06c.88,0,1.75.22,2.63.32.51,0,.69.33.64.81-.18,1.56-.35,3.11-.54,4.66-.77,6.21-1.32,12.43-1.53,18.68-.1,3.12-.27,6.25-.57,9.36-.57,6.1-.66,12.21-.89,18.32-.14,3.6-.2,7.2-.54,10.79a22.73,22.73,0,0,1-2.8,9.9c-.1.18-.17.37-.26.56a21.49,21.49,0,0,0-1.92,13.08,5.67,5.67,0,0,0,1.15,2.8,12.35,12.35,0,0,0,4.67,3.85,33,33,0,0,0,9.74,2.78c.82.06.88.12.84,1-.11,2.17-.26,4.34-.37,6.51-.33,6-.64,12.08-1,18.12-.47,8.41-1,16.82-1.44,25.23-.34,6.18-.65,12.35-1,18.53-.14,2.71-.3,5.43-.46,8.14q-.52,9.26-1,18.52c-.33,6-.63,11.94-1,17.92q-.71,12.61-1.44,25.23-.6,10.59-1.18,21.17c-.06,1.2-.35,2.43.42,3.55.14.2.09.53.12.8a22.75,22.75,0,0,1-.1,4.21c-2.62.56-3.44,1.72-4.48,3.83a10.1,10.1,0,0,0-.6,1.73,34.74,34.74,0,0,0-1.11,9.68,12,12,0,0,0,.3,2.22A4.32,4.32,0,0,0,87.41,503a16.63,16.63,0,0,0,2.9.94c6.65,1.3,13.27,2.84,20,3.52a54.7,54.7,0,0,0,15.44-.19,32.72,32.72,0,0,0,6.06-1.72,5.48,5.48,0,0,0,3.6-4.1,2.15,2.15,0,0,1,.52-1.36,94,94,0,0,0,12.21,1.79,115.33,115.33,0,0,0,15.88.55c5.37-.21,10.73-.39,16.08-.87a21.42,21.42,0,0,0,4.19-.82,5.68,5.68,0,0,0,3.83-6.4c-.11-.4-.15-.81-.23-1.2a8.86,8.86,0,0,0-7.66-7.15c-1.41-.21-2.83-.33-4.24-.55a54.79,54.79,0,0,1-8.62-2.39c-3.61-1.18-7.18-2.47-10.9-3.3a20.77,20.77,0,0,0-2.61-.38c-.86-.08-1.71.47-2.56,0-.13-.86-.26-1.73-.4-2.6s-.21-1.48-.35-2.21c-.29-1.55-.36-1.78,1.27-2a8.23,8.23,0,0,0,3.89-1.66,3,3,0,0,0,1.32-3.18,6,6,0,0,1,.05-2c.35-3.24.69-6.48,1-9.72s.65-6.36,1-9.53c.48-4.59,1-9.19,1.46-13.78.46-4.39.91-8.78,1.38-13.18q.73-7,1.48-14c.33-3.11.65-6.21,1-9.32.48-4.6,1-9.19,1.46-13.78.46-4.39.91-8.79,1.38-13.18.49-4.73,1-9.45,1.5-14.18l1-9.12c.48-4.6,1-9.19,1.46-13.78.46-4.4.91-8.79,1.38-13.18q.74-7.1,1.5-14.19c.21-2,.39-3.92.67-5.87.17-1.2.5-2.36.59-3.59.25-3.25.59-6.49.9-9.74q.54-5.79,1.1-11.57c.32-3.38.63-6.76,1-10.14.49-5.28,1-10.55,1.49-15.83.32-3.38.63-6.76,1-10.14l1.5-15.83c.29-3,.56-6.09.86-9.13.06-.66.24-.78.93-.7a54,54,0,0,0,6.08.62c3.26,0,6.52,0,9.78-.07a25,25,0,0,0,3.24-.32,7,7,0,0,0,4.47-2.61,18.21,18.21,0,0,0,3-4.85c.3-.76.47-.81,1.24-.57,2.46.76,4.91,1.56,7.38,2.3q9,2.69,17.94,5.32c3.71,1.09,7.43,2.15,11.21,3a122.09,122.09,0,0,0,17.14,2.29,18.25,18.25,0,0,1,6.94,1.43,33.46,33.46,0,0,0,10.89,3.13c1.83.22,2,.18,1.36,1.92-.22.63-.35,1.31-.51,2-.24.94-.24.94-1.21,1-1.64.06-1.93.27-2.49,1.83-.14.38-.26.77-.37,1.17-.47,1.84-.95,3.68-1.4,5.52a110.29,110.29,0,0,0-2.85,13.34,35.28,35.28,0,0,0,.23,10.95,10.31,10.31,0,0,0,14.23,7.66,12.65,12.65,0,0,0,5.93-5.1,17.61,17.61,0,0,0,2.74-7.38,54.36,54.36,0,0,0,.37-6.5,2,2,0,0,0-1.51-2.13c-1-.3-1.95-.6-2.94-.81a1.25,1.25,0,0,0-1.72,1.19c-.18,1.28-.26,2.57-.4,3.85s-.22,2.44-.42,3.64a11.08,11.08,0,0,1-1.84,4.49c-1.46,2.13-3.31,2.25-5.08.4a5.65,5.65,0,0,1-1.58-3,16.08,16.08,0,0,1-.26-3.86,36.3,36.3,0,0,1,.79-6.06c1.33-5.54,1.73-11.27,3.4-16.74a1,1,0,0,0-.54-1.38c-.67-.27-.76-.67-.52-1.28s.36-1,.54-1.53a5.78,5.78,0,0,1,.61-1.71c.47-.6,1.27-.18,1.92-.28,2-.29,2.86-1,3.32-3a1.06,1.06,0,0,1,.74-.82,3,3,0,0,0,2.12-2.51,1.42,1.42,0,0,1,.85-1.22c1.22-.71,2-1.74,1.46-3.21a1.24,1.24,0,0,1,.34-1.42c1.64-1.91,1.58-3.73-.06-5.66a8,8,0,0,0-2.79-2,1,1,0,0,1-.67-.91,3.15,3.15,0,0,0-.61-1.91,1.88,1.88,0,0,1-.31-1.89c.84-3.43,1.62-6.87,2.47-10.29,1.34-5.4,2.73-10.79,4.1-16.18.15-.59.28-1.19.45-1.77s.28-.73,1-.6c.33.06.66.15,1,.22,2.18.49,4.36,1,6.55,1.46,5.53,1.09,11.1,2,16.68,2.74,2.22.31,4.44.66,6.67.84,2.64.21,5.3.25,7.95.35,6.18.25,12.36-.18,18.54-.41q3.25-.1,6.5-.5a72.13,72.13,0,0,1,15-.41,54.77,54.77,0,0,0,11.8-.26,31.84,31.84,0,0,0,7.49-1.86A41.6,41.6,0,0,0,412,165c3.09-2.55,6.13-5.16,9.2-7.74a119.83,119.83,0,0,0,9.88-8.82c.52-.54,1.09-1,1.65-1.52a2.55,2.55,0,0,1,1.05-.57C434.73,146.06,434.75,146,434.6,145.13ZM180.83,101.44c.11-.07.26-.19.35-.16a1.23,1.23,0,0,1,.47.35.57.57,0,0,1,.06.39,12.56,12.56,0,0,1-2.34,5.55.93.93,0,0,1-.85.44c-.23,0-.54-.34-.46-.55a3.64,3.64,0,0,1,.36-.71,13.25,13.25,0,0,0,2.08-4.59C180.56,101.9,180.56,101.61,180.83,101.44Zm-45-1.14a33.56,33.56,0,0,0-2.58,7.06,14.27,14.27,0,0,0,.85,9.73,4,4,0,0,1,.26.76.41.41,0,0,1-.17.32c-.16.12-.36.26-.55.08a2.45,2.45,0,0,1-.52-.59,12.09,12.09,0,0,1-1.48-4.83,15.66,15.66,0,0,1,.38-5.86,39.52,39.52,0,0,1,2.58-7.06,18.68,18.68,0,0,1,4.12-5.5,12.76,12.76,0,0,1,8.64-3.56c.75,0,1.5,0,2.24,0v0c2.5.17,5,.33,7.51.52a15.63,15.63,0,0,0,6.22-.76c1.61-.55,3.23-1,4.86-1.49a10,10,0,0,1,12.11,6,1.24,1.24,0,0,1,.12.58.93.93,0,0,1-.31.48.4.4,0,0,1-.55-.06,7.62,7.62,0,0,1-.66-1,11.82,11.82,0,0,0-3-3.55,7.78,7.78,0,0,0-7.13-1.31,25.06,25.06,0,0,0-2.71.85,24.76,24.76,0,0,1-12.61,1.29,41.6,41.6,0,0,0-5.9-.24,11.62,11.62,0,0,0-7.78,3.06A17,17,0,0,0,135.88,100.3Zm12.14,0c-.66.34-1.1.34-1.2,0-.16-.61.33-.86.72-1.07A26.62,26.62,0,0,1,153.4,97a22.5,22.5,0,0,1,6.23-.44,21.87,21.87,0,0,1,7,1.14c1.27.45,2.62.66,3.93,1a7.77,7.77,0,0,1,1.13.44.39.39,0,0,1,.19.51,1,1,0,0,1-.41.4,1.36,1.36,0,0,1-1-.06L165.6,98.7C159.56,97.13,153.67,97.37,148,100.28Zm14.9,4.52a.66.66,0,0,1-.47.59,9.61,9.61,0,0,1-1.07.17,13,13,0,0,1-4.47-1,3.07,3.07,0,0,1-1.58-1.21.62.62,0,0,1,0-.56c.08-.13.33-.18.51-.2a.54.54,0,0,1,.37.14,9.18,9.18,0,0,0,5.39,1.48c.27,0,.54,0,.81,0S162.92,104.48,162.92,104.8Zm-13.67,1.07a21.37,21.37,0,0,1-1.49,5.73,22.47,22.47,0,0,1-4,6.32,6.29,6.29,0,0,1-.92.79.54.54,0,0,1-.74,0,.55.55,0,0,1,0-.88,27.6,27.6,0,0,0,2.76-3.52,20,20,0,0,0,3.22-8.48,2.89,2.89,0,0,1,.35-1.36.45.45,0,0,1,.37-.12.49.49,0,0,1,.33.15C149.36,104.88,149.25,105.3,149.25,105.87Zm-8.67,44.21A109.85,109.85,0,0,0,142,136.31c0-.62,0-1.23,0-1.84s-.31-1-1.06-.81a2.15,2.15,0,0,1-2.61-1.4,4.87,4.87,0,0,1-.49-1.54,21,21,0,0,1,0-5.49,1.75,1.75,0,0,1,1.2-1.72,2.35,2.35,0,0,1,2.44.59c.28.29.46.67.72,1a.76.76,0,0,0,1.09,0,1,1,0,0,0,.12-.16c1.67-2.86,3.68-5.54,4.89-8.67a23.27,23.27,0,0,1,1.34-3,14,14,0,0,0,2.09-6.54,9.1,9.1,0,0,1,3.57,1,21.59,21.59,0,0,0,5.11,1.32,16.9,16.9,0,0,0,5.07-.2,2.41,2.41,0,0,0,.58-.17,1,1,0,0,0,.66-1.46.29.29,0,0,1,.45-.09,8.9,8.9,0,0,0,1.6.87c2.93,1,5.5,2.65,8.29,3.86a6.85,6.85,0,0,1,2.26,1.45c-.27.45-.5.86-.76,1.24a18.21,18.21,0,0,0-2.86,8.19c-.27,2.23-.42,4.46-.51,6.7a26.6,26.6,0,0,1-1.77,9.14,11.82,11.82,0,0,1-8.81,7.39,27.13,27.13,0,0,1-10.12.23,27.42,27.42,0,0,1-9.85-3.69,4.51,4.51,0,0,0-.89-.48.63.63,0,0,0-.5.24.75.75,0,0,0-.11.56,1.66,1.66,0,0,0,.85.84,29.58,29.58,0,0,0,8.41,3.51c.93.19,1.87.32,2.81.47a.52.52,0,0,1,.49.54c0,.61-.08,1.22-.17,1.82-.26,1.61-.57,3.21-.82,4.82-.13.82.05,1.08.92,1.23a7,7,0,0,1,3,1.25,4.24,4.24,0,0,1,1.36,1.49,1.36,1.36,0,0,1-.61,2,6,6,0,0,1-2.15.6A25.22,25.22,0,0,1,141.39,158a9.75,9.75,0,0,1-3.12-2.74A8.17,8.17,0,0,0,140.58,150.08Zm-2.09.16c.26.06.6.21.56.48-.22,1.24-.39,2.51-1.45,3.4a3.22,3.22,0,0,1-.89-2.25A1.46,1.46,0,0,1,138.49,150.24ZM97.91,311.8a28.26,28.26,0,0,1-5.13-1.26,11.77,11.77,0,0,0-1.72-.62,11.69,11.69,0,0,1-5.46-3.38,4.84,4.84,0,0,1-1.52-2.82A20.38,20.38,0,0,1,85,293.48a33.29,33.29,0,0,1,1.49-3.34,22.59,22.59,0,0,0,2.43-8.55c.49-4.6.67-9.21.75-13.83.07-4.07.17-8.16.49-12.22.37-4.67.65-9.34.94-14,.2-3.12.19-6.25.55-9.36.49-4.25.9-8.51,1.36-12.76,0-.39.19-.78.33-1.38,2.35.3,4.5.52,6.64.86,2.48.4,4.94.91,7.4,1.39.51.1.63.36.51.88-1.51,6.69-2.76,13.42-3.64,20.23-.74,5.79-1.65,11.56-2.52,17.33-.74,5-1.51,9.93-2.27,14.9-.47,3.08-.93,6.17-1.41,9.26a22.68,22.68,0,0,0-.23,3.86,11.86,11.86,0,0,0,2.85,7.45,14,14,0,0,0,1.12,1.19c2.91,2.78,3.87,6.29,3.74,10.17a4.73,4.73,0,0,1-.93,2.86.6.6,0,0,1-1.11-.12,10.73,10.73,0,0,1-1.17-3.87,5,5,0,0,0-.81-2.28,1.83,1.83,0,0,0-1.5-.91,1.76,1.76,0,0,0-1.89,1.71,6.45,6.45,0,0,0,.62,3,9.32,9.32,0,0,1,.49,4.79C99.15,311.56,98.69,312,97.91,311.8ZM90,483.66a.42.42,0,0,1,.55.42c0,1.54,0,3.09,0,4.71a2.36,2.36,0,0,1-1.87-1.18,3,3,0,0,1-.62-1.89A2.39,2.39,0,0,1,90,483.66Zm42.56,20a9.05,9.05,0,0,1-2.19,1.06,33.15,33.15,0,0,1-8.14,1.71,64.43,64.43,0,0,1-11.78-.27c-6.76-.65-13.36-2.24-20-3.51a13.94,13.94,0,0,1-2.32-.75A3.32,3.32,0,0,1,86,499.17a7.46,7.46,0,0,1-.1-.81,30.39,30.39,0,0,1,1-10.36c.53,0,.62.41.83.65a4.43,4.43,0,0,0,4.52,1.64,29.78,29.78,0,0,0,12.35-4.94,6.53,6.53,0,0,1,4.82-1.15A13.48,13.48,0,0,1,116.3,487a66.64,66.64,0,0,0,11.18,7.4c1.45.74,2.79,1.67,4.17,2.53a13.64,13.64,0,0,1,1.15.85A3.59,3.59,0,0,1,132.57,503.67ZM92,477.15a27.23,27.23,0,0,0,11.62.33,1.22,1.22,0,0,1,.29,1.19c-.11,1.62-.28,3.24-.38,4.87a1.72,1.72,0,0,1-.81,1.31,20,20,0,0,1-5.63,2.77c-.39.13-.78.25-1.17.35-.85.22-1.71.43-2.57.63-1.45.34-1.46.34-1.44-.88,0-.88.08-1.76.09-2.65C92,482.51,92,479.94,92,477.15Zm42.05-104c0,8.16.05,16.31.12,24.46q.19,26.5.43,53c0,5.92,0,11.84.26,17.74.18,3.54-.21,7-.37,10.53,0,.7-.25,1.25-.94,1.36-1.18.18-1.51,1.07-1.76,2a27.18,27.18,0,0,0-.9,7.46q0,1.94,0,3.87c0,.31.1.67-.32,1a16,16,0,0,1-1.83-1.09l-2-1.07a58.09,58.09,0,0,1-9.11-6.13,16.2,16.2,0,0,0-5.7-3,10.55,10.55,0,0,0-6.22-.09c-.65.2-.81,0-.77-.72.07-1.49.17-3,.18-4.48a1.09,1.09,0,0,1,.82-1.21,14.08,14.08,0,0,0,3-1.34c.58-.34,1.13-.74,1.69-1.13a2.53,2.53,0,0,0,1-1.69q2.67-13.28,5.36-26.54,2.92-14.47,5.86-28.94,2.76-13.56,5.53-27.13l4.74-23.34c.1-.53.16-1.08.24-1.61,1,.13.48.91.51,1.36C134,368.65,133.7,370.91,134,373.15Zm.33,109.07c0,.21-.05.38-.3.42s-.33-.34-.35-.6,0-.42.28-.4S134.36,482,134.37,482.22Zm20-1.43a5.63,5.63,0,0,1,1,.16,88.88,88.88,0,0,1,8.62,2.42c3,1,6.07,2,9.12,2.9a29.75,29.75,0,0,0,6.23,1,8.09,8.09,0,0,1,5.12,2.23,7.78,7.78,0,0,1,2.32,6.69,3.84,3.84,0,0,1-2.71,3.28,15.29,15.29,0,0,1-4.18.84c-7.52.59-15,1-22.6.87a129.11,129.11,0,0,1-16.42-1.49c-1.21-.18-2.41-.4-3.61-.63a3.6,3.6,0,0,1-1.55-.43c-1.16-.92-2.23-1.95-3.3-3a1.12,1.12,0,0,1-.16-.77c.15-3.39-.18-6.8.31-10.18a5.86,5.86,0,0,1,.24-.71c.27.14.42.18.49.27,1.3,1.81,3.19,2.43,5.28,2.7a10.59,10.59,0,0,0,7-1.54,39.57,39.57,0,0,0,4.25-3.15A6.29,6.29,0,0,1,154.36,480.79Zm-18.72.46h0c.19-3.18.38-6.36.59-9.53,0-.75.28-.94.85-.69a25,25,0,0,0,10.9,2l.6,0a.54.54,0,0,1,.54.49q.42,3.12.82,6.24a.9.9,0,0,1-.34.9,49.86,49.86,0,0,1-5.06,3.72,9.18,9.18,0,0,1-7.83.74c-1-.33-1.07-.44-1.09-1.42C135.62,482.88,135.64,482.07,135.64,481.25Zm37.57-180.92c-.3,3-.63,6.08-1,9.12-.35,3.24-.69,6.48-1,9.72s-.73,6.75-1.08,10.13c-.32,3-.63,6.08-.95,9.12-.36,3.37-.73,6.75-1.08,10.13-.33,3.1-.64,6.21-1,9.32-.36,3.38-.73,6.75-1.08,10.13-.33,3.1-.64,6.21-1,9.32-.35,3.31-.71,6.62-1.06,9.92-.33,3-.64,6.08-1,9.12-.5,4.73-1,9.46-1.5,14.18-.33,3-.63,6.08-.95,9.12-.36,3.38-.73,6.76-1.08,10.13-.33,3-.63,6.08-.95,9.12-.37,3.44-.74,6.89-1.1,10.33-.32,3-.62,5.95-.94,8.92-.23,2.23-.49,4.45-.71,6.68a16.43,16.43,0,0,0-.12,3.05,2.2,2.2,0,0,1-1.11,2.21,8.28,8.28,0,0,1-3,1.18,23.81,23.81,0,0,1-13.41-1.18c-.13-.05-.25-.12-.38-.16a2.31,2.31,0,0,1-1.71-2.57c-.1-19.5-.28-39-.44-58.51-.13-16.51-.25-33-.45-49.54a26.44,26.44,0,0,1,.53-5.62q2.79-13.56,5.52-27.13c.12-.6.23-1.2.34-1.8.08-.43.07-.83-.41-1s-.75.16-.91.85-.29,1.33-.42,2q-3.42,16.86-6.85,33.73-3.56,17.56-7.1,35.13-3.16,15.56-6.35,31.12-2.73,13.37-5.42,26.75c-1.24,6.12-2.49,12.23-3.69,18.36a3.09,3.09,0,0,1-1.54,2.26,19.3,19.3,0,0,1-6.24,2.38,28.88,28.88,0,0,1-7.31.22,8.23,8.23,0,0,1-3-.67,1.32,1.32,0,0,1-.88-1.43c.14-2.1.21-4.2.32-6.31q.33-6,.68-12,.55-9.47,1.09-18.92c.15-2.65.31-5.29.45-7.94.33-6.31.63-12.62,1-18.93.32-5.83.69-11.66,1-17.5.18-3.12.33-6.24.5-9.36l1.14-20.14c.14-2.58.29-5.16.42-7.74.33-6.24.63-12.48,1-18.72.33-5.9.7-11.8,1-17.7.08-1.36.11-2.72.17-4.07a10.83,10.83,0,0,1,.59-3.6,6.45,6.45,0,0,0,.08-3.62c-.09-.42.08-.56.48-.46a23.47,23.47,0,0,0,1.06,2.2,1.44,1.44,0,0,0,2.24.55,3.46,3.46,0,0,0,1.67-2,10.5,10.5,0,0,0,.59-4.81,20.93,20.93,0,0,0-1.38-5.1c-.16-.42-.54-.78-.4-1.3.13,0,.27-.14.38-.11,3.14,1,6.43.95,9.64,1.5,2.33.41,4.7.68,7,1,1.75.23,3.5.52,5.26.61,5.57.29,11.11.89,16.68,1.05,3.39.1,6.79.34,10.18.16,4.41-.22,8.82-.46,13.2-1.09,1.8-.26,3.58-.71,5.4-1.08C173.45,299.39,173.26,299.89,173.21,300.33Zm37-98.61a17.33,17.33,0,0,1-3.46,7.07,6.11,6.11,0,0,1-4.33,2.39c-1.69.15-3.38.24-5.08.29a64.19,64.19,0,0,1-13.21-.65c-.18,0-.37-.1-.54-.15a2.61,2.61,0,0,1-.07-1.63c.31-3.52.65-7,1-10.55.22-2.3.44-4.6.64-6.9a7.09,7.09,0,0,0,0-1.22.52.52,0,0,0-.54-.49.65.65,0,0,0-.63.43,2.35,2.35,0,0,0-.1.6c-.26,2.57-.51,5.13-.76,7.7q-.78,8.22-1.55,16.43c-.47,5-.91,10-1.38,15s-1,10-1.44,15c-.33,3.45-.64,6.9-1,10.34-.35,3.79-.72,7.58-1.08,11.36l-.93,9.94q-.55,5.9-1.12,11.77c-.19,2.1-.37,4.19-.56,6.29-.05.54-.09,1.08-.16,1.62a1,1,0,0,1-.7.9c-.71.23-1.4.52-2.12.7a48.79,48.79,0,0,1-6,1,135.56,135.56,0,0,1-22.79.55c-5.43-.3-10.85-.67-16.27-1.15-3.31-.3-6.59-.86-9.89-1.3-1.55-.21-3.09-.57-4.64-.63a48.75,48.75,0,0,1-7.4-1.29,1.33,1.33,0,0,1-.7-.35,10.8,10.8,0,0,1-4-8.13,45.77,45.77,0,0,1,.67-7.3c.74-4.9,1.51-9.79,2.27-14.69.59-3.75,1.21-7.5,1.78-11.26.51-3.36,1-6.71,1.44-10.08.58-4.72,1.26-9.42,2.21-14.08.4-2,.72-4,1.07-6,0-.2,0-.41.1-.61.57-1.94.21-2,2.41-1.54.6.13,1.2.24,1.8.38a5.88,5.88,0,0,0,5.34-1.31c3.3-2.83,5.27-6.35,5.06-10.85a18.14,18.14,0,0,0-.89-4.17.73.73,0,0,0-.07-.19.72.72,0,0,0-.68-.35.5.5,0,0,0-.46.56,6.06,6.06,0,0,0,.15,1.2c.12.6.27,1.19.41,1.79a9.88,9.88,0,0,1-1.16,7.07,14.56,14.56,0,0,1-2.44,3.25,5.2,5.2,0,0,1-4.59,1.7,26.74,26.74,0,0,1-3.19-.6c-3.56-.89-7.16-1.56-10.77-2.18-1.27-.22-2.56-.35-3.85-.46-2.63-.23-5.22-.83-7.86-1a12.14,12.14,0,0,1-2.93-.83,1.7,1.7,0,0,1-1.2-1.71,13,13,0,0,1,.24-2.84,89.3,89.3,0,0,1,5.33-17.06,172.35,172.35,0,0,1,8.65-18A40.88,40.88,0,0,1,109,163a45.79,45.79,0,0,1,8.28-4.78,72.16,72.16,0,0,1,8.92-3.4c3-.94,6-1.88,8.88-3.09a1.85,1.85,0,0,1,.26.5,9.89,9.89,0,0,0,4.29,6.22,23.12,23.12,0,0,0,11.11,4.19c.81.08,1.62.16,2.43.27a17.64,17.64,0,0,0,5.47-.36,5.45,5.45,0,0,0,1.15-.41,2.71,2.71,0,0,0,1.44-3.88c-.15-.35-.59-.58-.42-1.12a34.07,34.07,0,0,1,6.57,1.05,20.13,20.13,0,0,1,4.47,1.93c8.76,5.32,17.65,10.41,26.74,15.15,3,1.57,6,3.22,8.94,4.86a14.4,14.4,0,0,1,3.86,3,5.6,5.6,0,0,1,1.53,4.47,54.59,54.59,0,0,1-1,6.84C211.33,196.84,210.77,199.28,210.17,201.72Zm81.44,18.41a1.43,1.43,0,0,1-1,1.14,12.33,12.33,0,0,1-1.6.23,7.75,7.75,0,0,1-2.39-.53,16.4,16.4,0,0,1-4.57-2.59,1.77,1.77,0,0,1-.83-1.54c0-.26.18-.58.52-.48a11.9,11.9,0,0,1,1.5.58,23.84,23.84,0,0,0,7.71,2.43.83.83,0,0,1,.38.1A.55.55,0,0,1,291.61,220.13Zm2.79-3.21c-.52.86-1.39,1-2.41,1.15a36.51,36.51,0,0,1-4.23-.91,31.17,31.17,0,0,1-5.22-2.23,7,7,0,0,1-.88-.51c-1-.67-.92-1.45,0-2.08a1,1,0,0,1,1.29,0,24.62,24.62,0,0,0,8.19,3.42,11.62,11.62,0,0,0,2.82.26C294.48,216.07,294.66,216.5,294.4,216.92Zm1.81-2.85a6.18,6.18,0,0,1-1.15.37,1.33,1.33,0,0,1-.4,0l-1,0a10.42,10.42,0,0,1-3.08-.4,31.51,31.51,0,0,1-5.49-2.13,3.86,3.86,0,0,1-1.71-1.39.74.74,0,0,1,.25-1.05,1.92,1.92,0,0,1,2.11-.06,16.66,16.66,0,0,0,9.89,2.55c.47,0,1-.1,1.18.5A1.23,1.23,0,0,1,296.21,214.07Zm-.84-5.49a2.23,2.23,0,0,0,1.4-1.85l-.78-1.34c0-.32,0-.59.42-.31s.69.4.79.83a7.51,7.51,0,0,1,.77.92,2.46,2.46,0,0,1-1.75,3.58,15.2,15.2,0,0,1-9.5-2.15.81.81,0,0,1-.32-.48c0-.33.3-.47.51-.51,1.07-.19,2.14-.33,3.21-.48a1,1,0,0,1,.88.41,5.36,5.36,0,0,0,1.8,1.29A3.28,3.28,0,0,0,295.37,208.58Zm-7.58-4a.91.91,0,0,1,1.08.27.44.44,0,0,1,.13.35.39.39,0,0,1-.28.21c-.26.05-.53.07-.86.1-.12-.08-.39-.15-.42-.28A.58.58,0,0,1,287.79,204.62Zm7.06,1.84c.28.44,0,.77-.48.78a2.64,2.64,0,0,1-2-.83c-.58-.58-1.1-1.2-1.65-1.81a5.61,5.61,0,0,0-1.34-1.23,2.18,2.18,0,0,0-3.4,1.28c-.2.57,0,1.21-.52,1.72s-1,1.49-2.15,1.67a1.85,1.85,0,0,0-1.53,1.72,1.55,1.55,0,0,1-1,1.36,2.6,2.6,0,0,0-1,1,2.18,2.18,0,0,0-.09,2.32,1.51,1.51,0,0,1,.11,1.5,3,3,0,0,0,1.06,3.45,2.58,2.58,0,0,1,.51.29c.08.07.16.25.12.33s-.2.15-.32.16a1.15,1.15,0,0,1-1.07-.38,27.3,27.3,0,0,1-6.9-2.4,13.36,13.36,0,0,0-4.28-1.26,34,34,0,0,0-3.64-.39A108.12,108.12,0,0,1,242.63,212c-10-2.91-20.06-5.81-30-8.95a3.33,3.33,0,0,1-1.39-.64,88.84,88.84,0,0,0,3.14-15.1c.54-.33.86,0,1.22.12,3.74,1.39,7.5,2.78,11.32,3.95,4.54,1.4,8.91,3.29,13.39,4.84,3.59,1.23,7.22,2.36,10.83,3.55.64.21,1.28.43,1.91.66a151.58,151.58,0,0,0,17.33,5.23,11.81,11.81,0,0,0,5.45,0,9.08,9.08,0,0,0,3.77-1.92c.95-.77,1.9-1.54,2.84-2.32,2.68-2.21,5.74-2.16,8.89-1.47a3,3,0,0,1,1.45.73,1.86,1.86,0,0,1,.75,1.38A7.82,7.82,0,0,0,294.85,206.46ZM329.07,45a14.07,14.07,0,0,1,6.18-5c1,2.78,1.94,5.3,1.49,8.12a2.92,2.92,0,0,1-.64,0,44.11,44.11,0,0,1-6.74-2.17C328.87,45.73,328.78,45.41,329.07,45ZM299.64,165.47c-.16.58-.35,1.16-.52,1.69a5.4,5.4,0,0,1-2.27-.36A55.48,55.48,0,0,1,284,162.3c-2.44-1.2-4.88-2.37-7.32-3.57a59,59,0,0,1-6.19-3.52c-4.15-2.71-8.26-5.47-12.41-8.17-1.88-1.22-3.77-2.44-5.72-3.53-4.08-2.29-8.08-4.73-12.07-7.18-3.17-2-6.46-3.73-9.72-5.54-4.21-2.34-8.49-4.56-12.57-7.12-1.38-.86-2.75-1.75-4.05-2.73a27.83,27.83,0,0,1-6.53-6.94,78.36,78.36,0,0,1-10.93-25.71q-.57-2.48-1.08-5a10.13,10.13,0,0,1-.19-1.82,2.26,2.26,0,0,1,1.63-2.07,6.15,6.15,0,0,1,1.19-.25,62.54,62.54,0,0,1,7.11-.45,64.5,64.5,0,0,0,11.37-.68c4.79-.58,9.55-1.35,14.38-1.56,3-.13,5.95-.55,8.92-.84,2.37-.22,4.74-.41,7.1-.66,4.59-.48,9.18-1,13.77-1.5,2.63-.3,5.26-.63,7.89-.91a26.91,26.91,0,0,1,8.89.82c6.6,1.52,13.25,2.89,19.76,4.83,7.67,2.29,15.41,4.27,23.19,6.15.13,0,.27.06.4.09.5.16.65.38.55.88s-.18.8-.29,1.19Q310.39,126,299.64,165.47Zm111.75-1.78a39.35,39.35,0,0,1-12.07,7.05,28.72,28.72,0,0,1-7.54,1.64,63.6,63.6,0,0,1-8.95.21,74.09,74.09,0,0,0-12-.13c-1.55.16-3.11.28-4.67.45-5.88.64-11.79.75-17.7.94-4.75.14-9.51-.06-14.26-.28-2.37-.11-4.73-.5-7.08-.84-4-.6-8-1.29-12.07-1.89s-8.24-1.67-12.36-2.53c-.9-.19-1-.33-.75-1.25,1.34-5.75,2.89-11.45,4.45-17.14q8.49-31,17-62c.23-.84.12-2,.88-2.41s1.67.16,2.51.36a321.86,321.86,0,0,1,37,11.17,68.49,68.49,0,0,1,11.39,5.38c2.33,1.39,4.65,2.8,7,4.2a185.47,185.47,0,0,1,19.59,13.9C407.36,125,413,129.56,418.76,134c2.14,1.67,4.36,3.23,6.6,4.77a71.75,71.75,0,0,1,7.34,6.28C425.92,151.86,418.49,157.59,411.39,163.69Zm20.45-21.16a55.15,55.15,0,0,0-7.47-6c-5.27-3.62-10.09-7.82-15.12-11.76-7.06-5.52-14-11.22-21.51-16.14-4.32-2.82-8.74-5.49-13.22-8.07a67.73,67.73,0,0,0-10.34-4.78A335.06,335.06,0,0,0,322.4,83.51c-8-1.81-16-3.86-23.83-6.25-5.07-1.54-10.24-2.69-15.39-3.88-2.71-.63-5.45-1.16-8.17-1.75a22.65,22.65,0,0,0-7.3-.24c-3.71.39-7.42.9-11.13,1.3-4.93.52-9.87,1-14.8,1.47-3.45.34-6.9.64-10.34,1-2.37.24-4.75.21-7.11.58-2.68.42-5.39.69-8.08,1a57.86,57.86,0,0,1-9.75.7,49.85,49.85,0,0,0-8.72.56,4.2,4.2,0,0,1-.65,0,7.62,7.62,0,0,1,1.7-2.11,140.74,140.74,0,0,1,11-9.68A60.22,60.22,0,0,1,217,61.47,150.62,150.62,0,0,1,255,46c5.51-1.48,11.13-2.44,16.76-3.37,6.31-1,12.65-1.71,19-2.19a54.56,54.56,0,0,1,11,.1c2.15.25,4.33.34,6.5.52a40.74,40.74,0,0,1,13.6,3.23c2.41,1.09,4.89,2,7.34,3a77.1,77.1,0,0,0,10.32,3.11,87.33,87.33,0,0,0,11.21,2.06,37.49,37.49,0,0,1,13.86,4.51,78.58,78.58,0,0,1,9.15,6.09A142.73,142.73,0,0,1,384.9,73c2.12,2,4.29,4,6.43,6,7.41,6.91,14.74,13.89,21,21.94,2.7,3.49,5.08,7.22,7.47,10.93,1.87,2.92,3.69,5.86,5.49,8.82a52.13,52.13,0,0,1,6.94,18.59,16.34,16.34,0,0,1,.56,3.75C432.28,143.06,432.07,142.75,431.84,142.53Z"/><path fill="#060404" d="M226.87,22.55A70.55,70.55,0,0,0,212.53,25a3.19,3.19,0,0,1-1.58.24c-.2,0-.42-.13-.41-.37a.91.91,0,0,1,.16-.54,2.81,2.81,0,0,1,1.66-.7c2.37-.57,4.74-1.16,7.14-1.59a52,52,0,0,1,7.87-.93,43.92,43.92,0,0,1,17.3,3.08c2.34.9,4.53,2.17,7,2.75a.57.57,0,0,1,.38.64c0,.31-.26.44-.56.47a3.74,3.74,0,0,1-1.77-.38l-4.52-1.81a44,44,0,0,0-13.78-3.31A29.22,29.22,0,0,0,226.87,22.55Z"/><path fill="#0b0909" d="M403.56,36.52a69,69,0,0,0-10.35.87,37.16,37.16,0,0,0-7.6,2.2c-.12.06-.24.14-.36.19-.76.31-1.34.25-1.41-.15s.25-.84,1-1.14A37.09,37.09,0,0,1,394,35.85a104,104,0,0,1,14.44-.76,4.74,4.74,0,0,1,1.19.16.68.68,0,0,1,.39.42c.07.29-.12.5-.37.66a2,2,0,0,1-1.18.2Z"/><path fill="#090606" d="M260.51,17.81c0,.25-.42.46-.62.33a11.8,11.8,0,0,1-1-.69,39.17,39.17,0,0,0-16-7.15c-2.4-.46-4.84-.65-7.27-.89-.27,0-.54,0-.81-.05a.53.53,0,0,1-.47-.55.64.64,0,0,1,.44-.62A4.1,4.1,0,0,1,236,8.1c1.56.13,3.12.24,4.66.45A38.52,38.52,0,0,1,259.08,16a15.44,15.44,0,0,1,1.25,1A.62.62,0,0,1,260.51,17.81Z"/><path fill="#110a0a" d="M402.65,49.29a25.31,25.31,0,0,1,8,1.29,2.93,2.93,0,0,1,1.71,1,.62.62,0,0,1,.06.75.57.57,0,0,1-.72.22,10.8,10.8,0,0,0-3-1.14,23.4,23.4,0,0,0-9.09-.6,16.84,16.84,0,0,1-2,.17.41.41,0,0,1-.43-.34.51.51,0,0,1,.3-.66,3,3,0,0,1,.76-.27A23.72,23.72,0,0,1,402.65,49.29Z"/><path fill="#f38704" d="M101.46 307.43a23.47 23.47 0 001.06 2.2 1.44 1.44 0 002.24.55 3.46 3.46 0 001.67-2 10.5 10.5 0 00.59-4.81 20.93 20.93 0 00-1.38-5.1c-.16-.42-.54-.78-.4-1.3.13 0 .27-.14.38-.11 3.14 1 6.43.95 9.64 1.5 2.33.41 4.7.68 7 1 1.75.23 3.5.52 5.26.61 5.57.29 11.11.89 16.68 1.05 3.39.1 6.79.34 10.18.16 4.41-.22 8.82-.46 13.2-1.09 1.8-.26 3.58-.71 5.4-1.08.42.36.23.86.18 1.3-.3 3-.63 6.08-1 9.12-.35 3.24-.69 6.48-1 9.72s-.73 6.75-1.08 10.13c-.32 3-.63 6.08-.95 9.12-.36 3.37-.73 6.75-1.08 10.13-.33 3.1-.64 6.21-1 9.32-.36 3.38-.73 6.75-1.08 10.13-.33 3.1-.64 6.21-1 9.32-.35 3.31-.71 6.62-1.06 9.92-.33 3-.64 6.08-1 9.12-.5 4.73-1 9.46-1.5 14.18-.33 3-.63 6.08-.95 9.12-.36 3.38-.73 6.75-1.08 10.13-.33 3-.63 6.08-.95 9.12-.37 3.44-.74 6.89-1.1 10.33-.32 3-.62 5.95-.94 8.92-.23 2.23-.49 4.45-.71 6.68a16.43 16.43 0 00-.12 3.05 2.2 2.2 0 01-1.11 2.21 8.28 8.28 0 01-3 1.18 23.81 23.81 0 01-13.41-1.18c-.13-.05-.25-.12-.38-.16a2.31 2.31 0 01-1.71-2.57c-.1-19.5-.28-39-.44-58.51-.13-16.51-.25-33-.45-49.54a26.44 26.44 0 01.53-5.62q2.79-13.56 5.52-27.13c.12-.6.23-1.2.34-1.8.08-.43.07-.83-.41-1s-.75.16-.91.85-.29 1.33-.42 2q-3.42 16.86-6.85 33.73-3.56 17.56-7.1 35.13-3.16 15.56-6.35 31.12-2.73 13.37-5.42 26.75c-1.24 6.12-2.49 12.23-3.69 18.36a3.09 3.09 0 01-1.54 2.26 19.3 19.3 0 01-6.24 2.38 28.88 28.88 0 01-7.31.22 8.23 8.23 0 01-3-.67 1.32 1.32 0 01-.88-1.43c.14-2.1.21-4.2.32-6.31q.33-6 .68-12 .55-9.47 1.09-18.92c.15-2.65.31-5.29.45-7.94.33-6.31.63-12.62 1-18.93.32-5.83.69-11.66 1-17.5.18-3.12.33-6.24.5-9.36l1.14-20.14c.14-2.58.29-5.16.42-7.74.33-6.24.63-12.48 1-18.72.33-5.9.7-11.8 1-17.7.08-1.36.11-2.72.17-4.07a10.83 10.83 0 01.59-3.6 6.45 6.45 0 00.08-3.62C100.89 307.47 101.06 307.33 101.46 307.43zM432.75 143c-.47.11-.68-.2-.91-.42a55.15 55.15 0 00-7.47-6c-5.27-3.62-10.09-7.82-15.12-11.76-7.06-5.52-14-11.22-21.51-16.14-4.33-2.82-8.74-5.49-13.22-8.07a67.73 67.73 0 00-10.34-4.78A335.06 335.06 0 00322.4 83.51c-8-1.81-16-3.86-23.83-6.25-5.07-1.54-10.24-2.69-15.39-3.88-2.71-.63-5.45-1.16-8.17-1.75a22.94 22.94 0 00-7.3-.24c-3.71.39-7.42.9-11.13 1.3-4.93.52-9.87 1-14.8 1.47-3.45.34-6.9.64-10.34 1-2.37.24-4.75.21-7.11.58-2.68.42-5.39.69-8.08 1a57.86 57.86 0 01-9.75.7 49.85 49.85 0 00-8.72.56 4.2 4.2 0 01-.65 0 7.8 7.8 0 011.7-2.11 140.74 140.74 0 0111-9.68A60.22 60.22 0 01217 61.47 150.62 150.62 0 01255 46c5.51-1.48 11.13-2.44 16.76-3.37 6.31-1 12.65-1.71 19-2.19a54.56 54.56 0 0111 .1c2.15.25 4.33.34 6.5.52a40.74 40.74 0 0113.6 3.23c2.41 1.09 4.89 2 7.34 3a77.1 77.1 0 0010.32 3.11 87.33 87.33 0 0011.21 2.06 37.49 37.49 0 0113.86 4.51 78.58 78.58 0 019.15 6.09A142.73 142.73 0 01384.9 73c2.12 2 4.29 4 6.43 6 7.41 6.91 14.74 13.89 21 21.94 2.7 3.49 5.08 7.22 7.47 10.93 1.87 2.92 3.69 5.86 5.49 8.82a52.13 52.13 0 016.94 18.59A16.34 16.34 0 01432.75 143zM132.79 484c.27.14.42.18.49.27 1.3 1.81 3.19 2.43 5.28 2.7a10.59 10.59 0 007-1.54 39.57 39.57 0 004.25-3.15 6.29 6.29 0 014.53-1.47 5.63 5.63 0 011 .16 88.88 88.88 0 018.62 2.42c3 1 6.07 2 9.12 2.9a29.75 29.75 0 006.23 1 8.09 8.09 0 015.12 2.23 7.78 7.78 0 012.32 6.69 3.84 3.84 0 01-2.71 3.28 15.29 15.29 0 01-4.18.84c-7.52.59-15 1-22.6.87a129.11 129.11 0 01-16.42-1.49c-1.21-.18-2.41-.4-3.61-.63a3.6 3.6 0 01-1.55-.43c-1.16-.92-2.23-1.95-3.3-3a1.12 1.12 0 01-.16-.77c.15-3.39-.18-6.8.31-10.18A5.86 5.86 0 01132.79 484zM86.91 488c.53 0 .62.41.83.65a4.43 4.43 0 004.52 1.64 29.78 29.78 0 0012.35-4.94 6.53 6.53 0 014.82-1.15A13.48 13.48 0 01116.3 487a66.64 66.64 0 0011.18 7.4c1.45.74 2.79 1.67 4.17 2.53a13.64 13.64 0 011.15.85 3.59 3.59 0 01-.23 5.86 9.05 9.05 0 01-2.19 1.06 33.15 33.15 0 01-8.14 1.71 64.43 64.43 0 01-11.78-.27c-6.76-.65-13.36-2.24-20-3.51a13.94 13.94 0 01-2.32-.75A3.32 3.32 0 0186 499.17a7.46 7.46 0 01-.1-.81A30.39 30.39 0 0186.91 488z"/><path fill="#424d4d" d="M134,373.15a11.43,11.43,0,0,1-.21-3.2c-.05-1.21,0-2.42-.06-3.63,0-.46,0-.95-.42-1.28a2.06,2.06,0,0,1,.6-1.71s.1.08.1.12A73,73,0,0,1,134,373.15Z"/><path fill="#ca6b03" d="M100.83,304.53c0,.11-.08.27-.17.32a.58.58,0,0,1-.39,0,.59.59,0,0,1-.33-.2c-.47-.66-.55-1.36-.21-1.67a.25.25,0,0,1,.19-.05c.69.11.72.7.85,1.21C100.8,304.26,100.81,304.39,100.83,304.53Z"/><path fill="#925503" d="M101.46,307.43l-.48.46a2.3,2.3,0,0,1-.12-1.8A1.32,1.32,0,0,1,101.46,307.43Z"/><path fill="#ca8704" d="M362.07,441.14c.26.52.81.38,1.23.52a12.76,12.76,0,0,1-4.44.27.83.83,0,0,1,.7-.33.9.9,0,0,0,.86-.42A1.17,1.17,0,0,1,362.07,441.14Z"/><path fill="#be6b03" d="M270.67,466.5l.49-.5a3,3,0,0,1,.85,1.3.43.43,0,0,1-.56.06A1.47,1.47,0,0,1,270.67,466.5Z"/><path fill="#7e2501" d="M271.45,467.36l.56-.06c.23.19.15.34-.1.34S271.6,467.46,271.45,467.36Z"/><path fill="#060505" d="M217,107.91c-.4-.1-.56-.38-.51-.63a7.64,7.64,0,0,1,.51-1.53A51.85,51.85,0,0,1,222.44,96a77.16,77.16,0,0,1,13.5-14.92c1-.87,2.14-1.66,3.23-2.47a2.6,2.6,0,0,1,.9-.44.59.59,0,0,1,.5.22.87.87,0,0,1,0,.57c0,.12-.16.22-.26.31a7.79,7.79,0,0,1-.63.51,75.75,75.75,0,0,0-14,14.14,56.72,56.72,0,0,0-7.13,11.84,19.38,19.38,0,0,1-1,2C217.38,107.83,217.13,107.86,217,107.91Z"/><path fill="#060606" d="M272.63,120.23c.16-.67.33-1.75.66-2.78.79-2.45,1.58-4.9,2.5-7.3a45.36,45.36,0,0,1,8-12.93c1.61-1.92,3.24-3.83,4.84-5.76.48-.57.86-1.21,1.33-1.79.08-.11.37-.13.54-.09a.49.49,0,0,1,.4.61,4.61,4.61,0,0,1-.66,1.24c-1.21,1.56-2.45,3.09-3.69,4.62-.59.73-1.21,1.46-1.83,2.18a46.15,46.15,0,0,0-9.49,17.58c-.4,1.37-.78,2.74-1.16,4.11-.09.33-.13.67-.23,1s-.28.62-.69.63S272.55,121.18,272.63,120.23Z"/><path fill="#050505" d="M345.48,136.29a73.18,73.18,0,0,1-1.36,16.06c-.25,1.19-.64,2.36-1,3.53a3.09,3.09,0,0,1-.33.74.63.63,0,0,1-.69.32.53.53,0,0,1-.42-.6,3.1,3.1,0,0,1,.17-.79,59.42,59.42,0,0,0,2.26-16.29,73.55,73.55,0,0,0-.81-13c-.44-2.82-1.18-5.57-1.81-8.35a25.59,25.59,0,0,0-1-4c-.09-.24.12-.51.41-.61a.6.6,0,0,1,.72.21,1.83,1.83,0,0,1,.35.73c.75,3.79,1.94,7.49,2.57,11.31A68.79,68.79,0,0,1,345.48,136.29Z"/><path fill="#070707" d="M394.45,144.16a59.13,59.13,0,0,1-.94,8.75c0,.14,0,.27-.05.41-.2,1.05-.52,1.46-1,1.24-.68-.33-.39-.93-.33-1.43.18-1.62.37-3.24.61-4.85a55.17,55.17,0,0,0,.37-6.91,15.86,15.86,0,0,0-1.48-7.13c-1.74-3.67-3.17-7.49-4.86-11.19-.06-.12-.12-.24-.17-.37a.6.6,0,0,1,.18-.72.62.62,0,0,1,.88.21c.5,1,1,1.91,1.43,2.91.92,2.27,1.86,4.52,3,6.7A22,22,0,0,1,394.45,144.16Z"/><path fill="#070400" d="M372.84,87.38c0,.54-.06,1.08-.12,1.61a.48.48,0,0,1-.38.42.57.57,0,0,1-.65-.35,1.91,1.91,0,0,1-.19-.78,38.39,38.39,0,0,0-1.65-8.76,35.76,35.76,0,0,0-7.39-13.87c-.31-.36-.61-.72-.9-1.1s-.33-.62,0-.88a.65.65,0,0,1,.9.16c.43.43.85.87,1.25,1.33A35.39,35.39,0,0,1,371,78.44,41.61,41.61,0,0,1,372.84,87.38Z"/><path fill="#080400" d="M300.11,46.87c-.06.18-.06.34-.15.42a1.55,1.55,0,0,1-.51.31A26.55,26.55,0,0,0,291,52.75a61.52,61.52,0,0,0-7.71,7.77,9.6,9.6,0,0,1-1.14,1.16.62.62,0,0,1-.55,0,.59.59,0,0,1-.23-.71,1.42,1.42,0,0,1,.08-.18,2.84,2.84,0,0,1,.22-.34c4.26-5.33,9-10.11,15.21-13.19a17,17,0,0,1,2.08-.82,1.42,1.42,0,0,1,.79,0C299.91,46.52,300,46.74,300.11,46.87Z"/><path fill="#0a0500" d="M332.75,57.75l-.32,1a133.69,133.69,0,0,1-5,12.65,8.3,8.3,0,0,1-.7,1.23.57.57,0,0,1-.7.25.51.51,0,0,1-.33-.65,8.78,8.78,0,0,1,.48-1.33c1.83-4.3,3.71-8.58,5.25-13a3.82,3.82,0,0,1,.31-.75.6.6,0,0,1,.64-.38c.35.06.36.36.42.61A2.88,2.88,0,0,1,332.75,57.75Z"/><path fill="#110d0d" d="M154.87,136.14a2.22,2.22,0,0,1,.29-.46.52.52,0,0,1,.73,0,1.56,1.56,0,0,1,.27.3,5.69,5.69,0,0,0,5,2.25,4.4,4.4,0,0,0,2.51-.7,7.2,7.2,0,0,1,.7-.42.66.66,0,0,1,.87.28.62.62,0,0,1-.14.9,5.76,5.76,0,0,1-1.34.91,7.6,7.6,0,0,1-8.37-1.95A1.94,1.94,0,0,1,154.87,136.14Z"/><path fill="#110e0e" d="M161.55,116.32c-.08.36-.15.61-.46.7a.74.74,0,0,1-.75-.19,8.4,8.4,0,0,1-.53-.87c-1.52-2.27-3.62-2.39-5.66-1.28a7.9,7.9,0,0,1-1.06.59c-.12.06-.4-.08-.51-.21a.8.8,0,0,1-.12-.55,1.08,1.08,0,0,1,.32-.5,5.41,5.41,0,0,1,8.5,1.43A4.57,4.57,0,0,1,161.55,116.32Z"/><path fill="#141111" d="M168.76,114.36l-1.32.39a4.93,4.93,0,0,1-.75.28.81.81,0,0,1-.53-.24.57.57,0,0,1,0-.74,2.3,2.3,0,0,1,1.36-.82,4.07,4.07,0,0,1,5,1.52,6.37,6.37,0,0,1,1.09,2.38,2.22,2.22,0,0,1,0,1,.56.56,0,0,1-.6.43.68.68,0,0,1-.5-.27,5.63,5.63,0,0,1-.43-1.12,4.87,4.87,0,0,0-1.05-2A2.79,2.79,0,0,0,168.76,114.36Z"/><path fill="#131111" d="M166.83,129.52a9,9,0,0,1,0,.92,1.31,1.31,0,0,1-1.16,1.23,4.87,4.87,0,0,1-1,0,.75.75,0,0,1-.74-.6c-.07-.39.19-.62.54-.73a1.83,1.83,0,0,1,.4-.05c.55,0,.65-.41.59-.86-.09-.67-.24-1.34-.32-2a.61.61,0,0,1,.53-.73c.38-.07.61.17.75.52A8.52,8.52,0,0,1,166.83,129.52Z"/><path d="M281.54 379.65a1.31 1.31 0 00-.28 1c0 2.58.08 5.16.14 7.74 0 1 .15 1.09 1.17 1.3.8.16 1.6.31 2.39.51a9.55 9.55 0 012.61 1.11 7.8 7.8 0 013.81 7.76 9.71 9.71 0 01-6.82 8.34c-.62.23-1.47.12-1.83.73s0 1.45 0 2.18.17 1.36.17 2a2.45 2.45 0 01-2.29 2.62 2.54 2.54 0 01-2.52-2.23c-.17-1-.26-2-.36-3-.15-1.49.14-1.67-1.89-2a24.58 24.58 0 01-6.58-2.07 5.83 5.83 0 01-1.23-.72 2.28 2.28 0 01-.67-2.74 2.3 2.3 0 012.44-1.44 6.43 6.43 0 011.92.66 21.76 21.76 0 004.45 1.42c.73.13 1-.1.93-.89-.12-2.23-.27-4.47-.36-6.7 0-1.21-.34-1.24-1.32-1.39a7.8 7.8 0 01-4.34-2.06c-2.61-2.47-3-5.51-2.2-8.81a10.42 10.42 0 015.73-7 2.67 2.67 0 001.75-3c-.1-1.62 0-3.26 0-4.89a7.38 7.38 0 01.1-1.41 2.19 2.19 0 012-1.74 2.09 2.09 0 012.12 1.57 7.78 7.78 0 01.2 1.6c.09 1.7.13 3.4.23 5.09.09 1.53.12 1.52 1.53 1.91a17.48 17.48 0 012.12.69 6.33 6.33 0 011.55.95 2.27 2.27 0 01.55 2.77 2.16 2.16 0 01-2.66.9c-.32-.11-.61-.31-.92-.42a9.75 9.75 0 00-1.17-.34A2.65 2.65 0 00281.54 379.65zM362.07 441.14l-1.65 0a3.06 3.06 0 01-1.69-3.2 17.36 17.36 0 000-2c-.06-1.37-.1-1.39-1.53-1.6a23 23 0 01-3-.55 14.68 14.68 0 01-8.81-6.79 7.34 7.34 0 01-.7-1.47 2.39 2.39 0 011.2-2.94 2.43 2.43 0 013.06.84c.28.38.45.84.71 1.24a10 10 0 008.63 4.83 81.71 81.71 0 00.35-13.73c-.9 0-1.78.06-2.65 0a7.78 7.78 0 01-6.9-6 10.38 10.38 0 01.7-7.15 12.85 12.85 0 017.36-6.94 1.43 1.43 0 001.13-1.62 19.54 19.54 0 010-2.65 2 2 0 011.89-2 2.07 2.07 0 012.29 1.84c.18 1.07.23 2.16.34 3.24a.77.77 0 00.61.71 23.82 23.82 0 012.5.87 7.85 7.85 0 013.82 3.24 4 4 0 01.54 2.54 2.06 2.06 0 01-1.66 1.83 2 2 0 01-2.14-.85 3.07 3.07 0 01-.35-.73 2.92 2.92 0 00-2.68-1.8 3.71 3.71 0 00-.07 1.89c.23 2.24.28 4.47.33 6.72 0 .82.08.89.94 1a14.18 14.18 0 016.64 2.39A9.91 9.91 0 01376 421a12.21 12.21 0 01-7.34 11.71 21.08 21.08 0 01-4.24 1.4c-.77.2-.87.35-.87 1.14s0 1.77.07 2.65A3.25 3.25 0 01362.07 441.14z"/><path fill="#201200" d="M347.45,394.32c-.07-.08-.2-.18-.21-.28a.47.47,0,0,1,.13-.36,33,33,0,0,1,6.17-4.86,2.13,2.13,0,0,1,.76-.19.39.39,0,0,1,.31.2.49.49,0,0,1,0,.37.69.69,0,0,1-.27.29,43,43,0,0,0-6.11,4.63A.74.74,0,0,1,347.45,394.32Z"/><path fill="#351e01" d="M376.14,393.31c-.11-.06-.28-.09-.34-.18q-1.32-1.9-2.6-3.85c-.05-.09.09-.39.21-.5a.37.37,0,0,1,.53.09,26.16,26.16,0,0,1,2.51,3.67.83.83,0,0,1,0,.56C376.43,393.19,376.25,393.24,376.14,393.31Z"/><path fill="#271601" d="M367,391.41a5.23,5.23,0,0,1,.6-2.21.38.38,0,0,1,.34-.11.41.41,0,0,1,.26.24,6.3,6.3,0,0,1-.4,2.54.36.36,0,0,1-.46.27.49.49,0,0,1-.31-.45A2.6,2.6,0,0,1,367,391.41Z"/><path fill="#1f1100" d="M358.3,380.25a1.48,1.48,0,0,1-.38.19.69.69,0,0,1-.64-.41c-1.09-1.68-2.18-3.38-3.26-5.08a.78.78,0,0,1-.07-.38.2.2,0,0,1,.1-.16c.11-.05.26-.12.35-.08a1.14,1.14,0,0,1,.47.34c1.11,1.68,2.22,3.36,3.31,5.05A1.86,1.86,0,0,1,358.3,380.25Z"/><path fill="#251400" d="M369.55,379.31a.45.45,0,0,1-.24-.66,16.12,16.12,0,0,1,2.67-4.06.33.33,0,0,1,.17-.1c.13,0,.34-.09.37,0a.87.87,0,0,1,.18.53,1.14,1.14,0,0,1-.28.53,24.75,24.75,0,0,0-2.24,3.38C370.05,379.13,369.88,379.36,369.55,379.31Z"/><path fill="#221401" d="M363.47,378.91c-.07.33-.12.57-.37.54a.61.61,0,0,1-.44-.31c-.44-1.28-.84-2.56-1.24-3.85a.4.4,0,0,1,.27-.47.38.38,0,0,1,.51.19A12.45,12.45,0,0,1,363.47,378.91Z"/><path fill="#110f0f" d="M159.39 118.5a1.86 1.86 0 00-2.52-.5 3.56 3.56 0 00-1.1 4.81 2.19 2.19 0 002.86.78A2.69 2.69 0 00160.2 121 4 4 0 00159.39 118.5zm-1.68 3.79c-.11.13-.38.28-.51.23a1.08 1.08 0 01-.58-.49 3 3 0 01-.16-.84 2.58 2.58 0 01.58-2 .62.62 0 01.88.09A2.87 2.87 0 01157.71 122.29zm1.64-.39c-.26.09-.38-.11-.43-.28a1.31 1.31 0 010-.59.45.45 0 01.23-.3.49.49 0 01.36.1c.23.18.3.43.2 1C159.72 121.78 159.54 121.84 159.35 121.9zM171.66 121.82h0a3.26 3.26 0 00-.79-1.83 2 2 0 00-2.71-.56 3.44 3.44 0 00-1.39 3.37 3.36 3.36 0 002.48 2.43 1.67 1.67 0 002-.89A2.11 2.11 0 00171.66 121.82zm-2.38 1.35a.85.85 0 01-.87.34.69.69 0 01-.49-.57 3.06 3.06 0 01.09-2 1 1 0 01.89-.69c.49 0 .65.38.74.79 0 .19.06.39.09.57A2.38 2.38 0 01169.28 123.17zm1.13.8c-.21-1.12-.18-1.17.75-1.25C171.24 123.79 171.24 123.79 170.41 124z"/><path fill="#f08504" d="M282.31,402.84a2.09,2.09,0,0,1-.32-1.38q-.19-3-.31-6.1c0-.63.23-.79.9-.72a6.83,6.83,0,0,1,2.48.85,2.59,2.59,0,0,1,1.45,2.31,4.44,4.44,0,0,1-1.81,4.08A3.79,3.79,0,0,1,282.31,402.84Z"/><path fill="#ed8404" d="M276.49,385c0,1.14,0,2.29,0,3.43,0,.47-.38.69-.84.53a3,3,0,0,1-2.17-2.63,5.72,5.72,0,0,1,2.15-5.18.48.48,0,0,1,.55-.1c.22.12.2.33.2.52,0,1.14,0,2.28,0,3.43Z"/><path fill="#f28704" d="M363.71,421.85c0-2.11,0-4.21,0-6.31,0-.65.26-.88.87-.8a8.6,8.6,0,0,1,5.47,2.85,4.32,4.32,0,0,1,1,2.4,7.58,7.58,0,0,1-4.51,8.28c-.31.15-.63.26-.95.38-2.22.81-2.28.78-2.23-1.52,0-1.76.15-3.52.23-5.28Z"/><path fill="#f08504" d="M358.65,410.49c-.29.09-.61.2-.93.27-2.26.43-3.5-.39-4-2.6a5,5,0,0,1,.2-2.8,8.06,8.06,0,0,1,3.79-4.59,1.49,1.49,0,0,1,.57-.08A43.22,43.22,0,0,1,358.65,410.49Z"/></g></svg>