<svg width="30" height="30" viewBox="0 0 30 30" fill="none" xmlns="http://www.w3.org/2000/svg">
<path d="M0 15C0 6.71573 6.71573 0 15 0C23.2843 0 30 6.71573 30 15C30 23.2843 23.2843 30 15 30C6.71573 30 0 23.2843 0 15Z" fill="#0077B5"/>
<path fill-rule="evenodd" clip-rule="evenodd" d="M10.8242 9.26419C10.8242 10.2449 10.086 11.0296 8.90074 11.0296H8.87902C7.73779 11.0296 7 10.2449 7 9.26419C7 8.26275 7.76026 7.5 8.92315 7.5C10.086 7.5 10.8022 8.26275 10.8242 9.26419ZM10.6004 12.4236V22.6372H7.20104V12.4236H10.6004ZM22.8595 22.6372L22.8597 16.7811C22.8597 13.6439 21.1827 12.1838 18.9458 12.1838C17.1409 12.1838 16.3329 13.1751 15.8817 13.8706V12.4239H12.482C12.5268 13.3823 12.482 22.6375 12.482 22.6375H15.8817V16.9334C15.8817 16.6281 15.9038 16.3236 15.9937 16.1051C16.2393 15.4953 16.7987 14.8639 17.7379 14.8639C18.9684 14.8639 19.4603 15.8004 19.4603 17.1729V22.6372H22.8595Z" fill="white"/>
</svg>
