<svg width="11" height="11" viewBox="0 0 11 11" fill="none" xmlns="http://www.w3.org/2000/svg">
<path d="M7.46373 9.50918e-08C6.91165 -0.000126522 6.36721 0.12908 5.87405 0.377264C5.38089 0.625449 4.95272 0.985711 4.62384 1.42918C4.29497 1.87265 4.07454 2.387 3.98022 2.931C3.8859 3.47501 3.92031 4.03355 4.0807 4.56186L0 8.64286V11H2.35697L6.43766 6.919C6.92395 7.06662 7.43633 7.10766 7.93991 7.03932C8.44349 6.97099 8.92642 6.79489 9.35578 6.52302C9.78515 6.25115 10.1509 5.8899 10.428 5.4639C10.7051 5.03789 10.8872 4.55715 10.9617 4.05442C11.0363 3.55168 11.0016 3.03879 10.86 2.55068C10.7184 2.06257 10.4733 1.61073 10.1413 1.22593C9.80934 0.841142 9.3983 0.532448 8.93623 0.32089C8.47416 0.109332 7.97192 -0.000117768 7.46373 9.50918e-08ZM7.46373 6.28571C7.19327 6.28557 6.92431 6.24559 6.6655 6.16707L6.21493 6.03036L5.8822 6.36311L4.63262 7.61279L4.09091 7.07143L3.53545 7.62693L4.07716 8.16868L3.45414 8.79175L2.91243 8.25L2.35697 8.8055L2.89868 9.34725L2.03171 10.2143H0.785656V8.96814L4.63615 5.11736L4.96927 4.78461L4.83257 4.334C4.66467 3.78046 4.67557 3.18807 4.86374 2.64109C5.05191 2.09411 5.40775 1.62039 5.88065 1.28732C6.35355 0.95426 6.91942 0.778806 7.49778 0.785922C8.07614 0.793038 8.63753 0.982361 9.1021 1.32696C9.56666 1.67156 9.91074 2.15389 10.0854 2.70533C10.26 3.25678 10.2564 3.84926 10.0749 4.3985C9.89344 4.94774 9.54342 5.42577 9.07462 5.76459C8.60582 6.10341 8.04213 6.28576 7.46373 6.28571Z" fill="#09726E"/>
</svg>
