<svg width="9" height="10" viewBox="0 0 9 10" fill="none" xmlns="http://www.w3.org/2000/svg">
<path d="M4.5 4.625C5.09674 4.625 5.66903 4.38136 6.09099 3.94768C6.51295 3.51401 6.75 2.92581 6.75 2.3125C6.75 1.69919 6.51295 1.11099 6.09099 0.677316C5.66903 0.243638 5.09674 0 4.5 0C3.90326 0 3.33097 0.243638 2.90901 0.677316C2.48705 1.11099 2.25 1.69919 2.25 2.3125C2.25 2.92581 2.48705 3.51401 2.90901 3.94768C3.33097 4.38136 3.90326 4.625 4.5 4.625ZM6 2.3125C6 2.72138 5.84196 3.1135 5.56066 3.40262C5.27936 3.69174 4.89782 3.85417 4.5 3.85417C4.10218 3.85417 3.72064 3.69174 3.43934 3.40262C3.15804 3.1135 3 2.72138 3 2.3125C3 1.90362 3.15804 1.5115 3.43934 1.22238C3.72064 0.933258 4.10218 0.770833 4.5 0.770833C4.89782 0.770833 5.27936 0.933258 5.56066 1.22238C5.84196 1.5115 6 1.90362 6 2.3125ZM9 8.47917C9 9.25 8.25 9.25 8.25 9.25H0.75C0.75 9.25 0 9.25 0 8.47917C0 7.70833 0.75 5.39583 4.5 5.39583C8.25 5.39583 9 7.70833 9 8.47917ZM8.25 8.47608C8.24925 8.28646 8.1345 7.71604 7.626 7.19342C7.137 6.69083 6.21675 6.16667 4.5 6.16667C2.7825 6.16667 1.863 6.69083 1.374 7.19342C0.8655 7.71604 0.7515 8.28646 0.75 8.47608H8.25Z" fill="#09726E"/>
</svg>
