<svg width="13" height="13" viewBox="0 0 13 13" fill="none" xmlns="http://www.w3.org/2000/svg">
<path d="M12.1875 11.375C12.1875 11.375 13 11.375 13 10.5625C13 9.75 12.1875 7.3125 8.9375 7.3125C5.6875 7.3125 4.875 9.75 4.875 10.5625C4.875 11.375 5.6875 11.375 5.6875 11.375H12.1875ZM5.70537 10.5625C5.69937 10.5617 5.69341 10.5606 5.6875 10.5592C5.68831 10.3448 5.82319 9.72237 6.305 9.16175C6.7535 8.63606 7.54163 8.125 8.9375 8.125C10.3326 8.125 11.1207 8.63688 11.57 9.16175C12.0518 9.72237 12.1859 10.3456 12.1875 10.5592L12.181 10.5609C12.1772 10.5615 12.1734 10.5621 12.1696 10.5625H5.70537ZM8.9375 5.6875C9.36848 5.6875 9.7818 5.5163 10.0865 5.21155C10.3913 4.9068 10.5625 4.49348 10.5625 4.0625C10.5625 3.63152 10.3913 3.2182 10.0865 2.91345C9.7818 2.6087 9.36848 2.4375 8.9375 2.4375C8.50652 2.4375 8.0932 2.6087 7.78845 2.91345C7.48371 3.2182 7.3125 3.63152 7.3125 4.0625C7.3125 4.49348 7.48371 4.9068 7.78845 5.21155C8.0932 5.5163 8.50652 5.6875 8.9375 5.6875ZM11.375 4.0625C11.375 4.3826 11.312 4.69956 11.1895 4.99529C11.067 5.29102 10.8874 5.55973 10.6611 5.78607C10.4347 6.01242 10.166 6.19196 9.87029 6.31446C9.57456 6.43695 9.2576 6.5 8.9375 6.5C8.6174 6.5 8.30044 6.43695 8.00471 6.31446C7.70898 6.19196 7.44027 6.01242 7.21393 5.78607C6.98758 5.55973 6.80804 5.29102 6.68554 4.99529C6.56305 4.69956 6.5 4.3826 6.5 4.0625C6.5 3.41603 6.75681 2.79605 7.21393 2.33893C7.67105 1.88181 8.29103 1.625 8.9375 1.625C9.58397 1.625 10.204 1.88181 10.6611 2.33893C11.1182 2.79605 11.375 3.41603 11.375 4.0625ZM5.6355 7.54C5.31048 7.43766 4.97545 7.37038 4.63613 7.33931C4.44546 7.32118 4.25403 7.31223 4.0625 7.3125C0.8125 7.3125 0 9.75 0 10.5625C0 11.1044 0.270562 11.375 0.8125 11.375H4.238C4.11755 11.1214 4.05748 10.8433 4.0625 10.5625C4.0625 9.74187 4.36881 8.90337 4.94812 8.203C5.14556 7.96412 5.3755 7.74069 5.6355 7.54ZM3.9975 8.125C3.51663 8.84753 3.25686 9.6946 3.25 10.5625H0.8125C0.8125 10.3512 0.94575 9.72563 1.43 9.16175C1.87281 8.645 2.64225 8.14125 3.9975 8.12581V8.125ZM1.21875 4.46875C1.21875 3.82228 1.47556 3.2023 1.93268 2.74518C2.3898 2.28806 3.00978 2.03125 3.65625 2.03125C4.30272 2.03125 4.9227 2.28806 5.37982 2.74518C5.83694 3.2023 6.09375 3.82228 6.09375 4.46875C6.09375 5.11522 5.83694 5.7352 5.37982 6.19232C4.9227 6.64944 4.30272 6.90625 3.65625 6.90625C3.00978 6.90625 2.3898 6.64944 1.93268 6.19232C1.47556 5.7352 1.21875 5.11522 1.21875 4.46875ZM3.65625 2.84375C3.22527 2.84375 2.81195 3.01495 2.5072 3.3197C2.20245 3.62445 2.03125 4.03777 2.03125 4.46875C2.03125 4.89973 2.20245 5.31305 2.5072 5.6178C2.81195 5.92255 3.22527 6.09375 3.65625 6.09375C4.08723 6.09375 4.50055 5.92255 4.8053 5.6178C5.11005 5.31305 5.28125 4.89973 5.28125 4.46875C5.28125 4.03777 5.11005 3.62445 4.8053 3.3197C4.50055 3.01495 4.08723 2.84375 3.65625 2.84375Z" fill="#09726E"/>
</svg>
