<svg width="22" height="22" viewBox="0 0 22 22" fill="none" xmlns="http://www.w3.org/2000/svg">
<mask id="path-1-inside-1_1572_4646" fill="white">
<path d="M15.8125 15.437L11 18.144L6.1875 15.437V12.5769L4.8125 11.813V16.2411L11 19.7216L17.1875 16.2411V11.813L15.8125 12.5769V15.437Z"/>
</mask>
<path d="M15.8125 15.437L11 18.144L6.1875 15.437V12.5769L4.8125 11.813V16.2411L11 19.7216L17.1875 16.2411V11.813L15.8125 12.5769V15.437Z" fill="#0DA29E"/>
<path d="M11 18.144L10.2646 19.4514L11 19.865L11.7354 19.4514L11 18.144ZM6.1875 15.437H4.6875V16.3142L5.45211 16.7443L6.1875 15.437ZM6.1875 12.5769H7.6875V11.6943L6.91597 11.2657L6.1875 12.5769ZM4.8125 11.813L5.54097 10.5018L3.3125 9.2637V11.813H4.8125ZM4.8125 16.2411H3.3125V17.1184L4.07711 17.5485L4.8125 16.2411ZM11 19.7216L10.2646 21.0289L11 21.4426L11.7354 21.0289L11 19.7216ZM17.1875 16.2411L17.9229 17.5485L18.6875 17.1184V16.2411H17.1875ZM17.1875 11.813H18.6875V9.2637L16.459 10.5018L17.1875 11.813ZM15.8125 12.5769L15.084 11.2657L14.3125 11.6943V12.5769H15.8125ZM15.0771 14.1296L10.2646 16.8366L11.7354 19.4514L16.5479 16.7443L15.0771 14.1296ZM11.7354 16.8366L6.92289 14.1296L5.45211 16.7443L10.2646 19.4514L11.7354 16.8366ZM7.6875 15.437V12.5769H4.6875V15.437H7.6875ZM6.91597 11.2657L5.54097 10.5018L4.08403 13.1242L5.45903 13.8881L6.91597 11.2657ZM3.3125 11.813V16.2411H6.3125V11.813H3.3125ZM4.07711 17.5485L10.2646 21.0289L11.7354 18.4142L5.54789 14.9337L4.07711 17.5485ZM11.7354 21.0289L17.9229 17.5485L16.4521 14.9337L10.2646 18.4142L11.7354 21.0289ZM18.6875 16.2411V11.813H15.6875V16.2411H18.6875ZM16.459 10.5018L15.084 11.2657L16.541 13.8881L17.916 13.1242L16.459 10.5018ZM14.3125 12.5769V15.437H17.3125V12.5769H14.3125Z" fill="#0DA29E" mask="url(#path-1-inside-1_1572_4646)"/>
<mask id="path-3-inside-2_1572_4646" fill="white">
<path d="M11 1.97559L1.375 6.96632V8.15802L11 13.5051L19.25 8.92191V12.7188H20.625V6.96632L11 1.97559ZM17.875 8.11285L16.5 8.87671L11 11.9324L5.5 8.87671L4.125 8.11285L3.172 7.58339L11 3.52444L18.828 7.58339L17.875 8.11285Z"/>
</mask>
<path d="M11 1.97559L1.375 6.96632V8.15802L11 13.5051L19.25 8.92191V12.7188H20.625V6.96632L11 1.97559ZM17.875 8.11285L16.5 8.87671L11 11.9324L5.5 8.87671L4.125 8.11285L3.172 7.58339L11 3.52444L18.828 7.58339L17.875 8.11285Z" fill="#0DA29E"/>
<path d="M11 1.97559L11.6905 0.643954L11 0.28593L10.3095 0.643954L11 1.97559ZM1.375 6.96632L0.684525 5.63469L-0.125 6.05444V6.96632H1.375ZM1.375 8.15802H-0.125V9.04063L0.646551 9.46926L1.375 8.15802ZM11 13.5051L10.2716 14.8163L11 15.221L11.7284 14.8163L11 13.5051ZM19.25 8.92191H20.75V6.37268L18.5216 7.61067L19.25 8.92191ZM19.25 12.7188H17.75V14.2188H19.25V12.7188ZM20.625 12.7188V14.2188H22.125V12.7188H20.625ZM20.625 6.96632H22.125V6.05444L21.3155 5.63469L20.625 6.96632ZM17.875 8.11285L18.6034 9.4241L18.6035 9.42408L17.875 8.11285ZM16.5 8.87671L15.7716 7.56546L15.7715 7.56549L16.5 8.87671ZM11 11.9324L10.2715 13.2437L11 13.6484L11.7285 13.2437L11 11.9324ZM5.5 8.87671L6.22849 7.56549L6.22844 7.56546L5.5 8.87671ZM4.125 8.11285L3.39652 9.42408L3.39656 9.4241L4.125 8.11285ZM3.172 7.58339L2.48152 6.25176L0.00130224 7.5378L2.44352 8.89462L3.172 7.58339ZM11 3.52444L11.6905 2.19281L11 1.83478L10.3095 2.19281L11 3.52444ZM18.828 7.58339L19.5565 8.89462L21.9987 7.5378L19.5185 6.25176L18.828 7.58339ZM10.3095 0.643954L0.684525 5.63469L2.06548 8.29795L11.6905 3.30722L10.3095 0.643954ZM-0.125 6.96632V8.15802H2.875V6.96632H-0.125ZM0.646551 9.46926L10.2716 14.8163L11.7284 12.1938L2.10345 6.84677L0.646551 9.46926ZM11.7284 14.8163L19.9784 10.2332L18.5216 7.61067L10.2716 12.1938L11.7284 14.8163ZM17.75 8.92191V12.7188H20.75V8.92191H17.75ZM19.25 14.2188H20.625V11.2188H19.25V14.2188ZM22.125 12.7188V6.96632H19.125V12.7188H22.125ZM21.3155 5.63469L11.6905 0.643954L10.3095 3.30722L19.9345 8.29795L21.3155 5.63469ZM17.1466 6.80161L15.7716 7.56546L17.2284 10.188L18.6034 9.4241L17.1466 6.80161ZM15.7715 7.56549L10.2715 10.6212L11.7285 13.2437L17.2285 10.1879L15.7715 7.56549ZM11.7285 10.6212L6.22849 7.56549L4.77151 10.1879L10.2715 13.2437L11.7285 10.6212ZM6.22844 7.56546L4.85344 6.80161L3.39656 9.4241L4.77156 10.188L6.22844 7.56546ZM4.85348 6.80163L3.90048 6.27217L2.44352 8.89462L3.39652 9.42408L4.85348 6.80163ZM3.86247 8.91503L11.6905 4.85607L10.3095 2.19281L2.48152 6.25176L3.86247 8.91503ZM10.3095 4.85607L18.1375 8.91503L19.5185 6.25176L11.6905 2.19281L10.3095 4.85607ZM18.0995 6.27217L17.1465 6.80163L18.6035 9.42408L19.5565 8.89462L18.0995 6.27217Z" fill="#0DA29E" mask="url(#path-3-inside-2_1572_4646)"/>
</svg>
