<svg width="24" height="22" viewBox="0 0 24 22" fill="none" xmlns="http://www.w3.org/2000/svg">
<path d="M18.9141 1.375H21.7891V4.125H18.9141V1.375Z" fill="#0DA29E"/>
<path d="M18.9141 5.5H21.7891V8.25H18.9141V5.5Z" fill="#0DA29E"/>
<path d="M14.6016 1.375H17.4766V4.125H14.6016V1.375Z" fill="#0DA29E"/>
<path d="M14.6016 5.5H17.4766V8.25H14.6016V5.5Z" fill="#0DA29E"/>
<path d="M20.3516 11V15.125H3.10156V4.125H11.7266V2.75H3.10156C2.72031 2.75 2.35468 2.89487 2.0851 3.15273C1.81551 3.41059 1.66406 3.76033 1.66406 4.125V15.125C1.66406 15.4897 1.81551 15.8394 2.0851 16.0973C2.35468 16.3551 2.72031 16.5 3.10156 16.5H8.85156V19.25H5.97656V20.625H17.4766V19.25H14.6016V16.5H20.3516C20.7328 16.5 21.0984 16.3551 21.368 16.0973C21.6376 15.8394 21.7891 15.4897 21.7891 15.125V11H20.3516ZM13.1641 19.25H10.2891V16.5H13.1641V19.25Z" fill="#0DA29E"/>
</svg>
