<svg width="30" height="30" viewBox="0 0 30 30" fill="none" xmlns="http://www.w3.org/2000/svg">
<path d="M0 15C0 6.71573 6.71573 0 15 0C23.2843 0 30 6.71573 30 15C30 23.2843 23.2843 30 15 30C6.71573 30 0 23.2843 0 15Z" fill="#FF0000"/>
<path d="M22.6656 11.2958C22.4816 10.5889 21.9395 10.0322 21.251 9.84333C20.0034 9.5 15 9.5 15 9.5C15 9.5 9.99664 9.5 8.74891 9.84333C8.06045 10.0322 7.51827 10.5889 7.33427 11.2958C7 12.5769 7 15.25 7 15.25C7 15.25 7 17.923 7.33427 19.2042C7.51827 19.9111 8.06045 20.4678 8.74891 20.6568C9.99664 21 15 21 15 21C15 21 20.0034 21 21.251 20.6568C21.9395 20.4678 22.4816 19.9111 22.6656 19.2042C23 17.923 23 15.25 23 15.25C23 15.25 23 12.5769 22.6656 11.2958Z" fill="white"/>
<path d="M13.5 18V13L17.5 15.5001L13.5 18Z" fill="#FF0000"/>
</svg>
